<svg width="48" height="48" viewBox="0 0 48 48" fill="none" xmlns="http://www.w3.org/2000/svg">
<path d="M28 27.5C32 23.5 34 17.5001 35 15C36.4 11.5 38.5 11 39.5 12" stroke="#547572" stroke-width="2" stroke-linecap="round"/>
<path d="M31 28.5C33.9474 25.3572 35.9057 20.9857 36.5 19.5C37.5 17 39 13.5 40.5 14.5M41 15.5C39.5 23 32 37.5 18 41" stroke="#547572" stroke-width="2" stroke-linecap="round"/>
<path d="M16 36C13.5 32 14 26 15 24C16 22 19.5 16.5 20 14C21.5 12.5 22 15.5 21.5 17" stroke="#547572" stroke-width="2" stroke-linecap="round"/>
<path d="M20 22.5C23 22.5 25 20 26 18.5C27 17 29.6078 11.5884 30 11C31 9.49997 32.5 8.5 33.5 9.5" stroke="#547572" stroke-width="2" stroke-linecap="round"/>
<path d="M25 24.5C29 20.5 32.5 13 33.5 11.5C34.5 10 36 9 37 10" stroke="#547572" stroke-width="2" stroke-linecap="round"/>
</svg>
