<svg width="109" height="134" viewBox="0 0 109 134" fill="none" xmlns="http://www.w3.org/2000/svg">
<path d="M21.5267 114.72C21.1311 114.688 20.7635 114.502 20.5032 114.201C18.6538 112.42 17.8023 110.37 16.8905 108.191C16.5809 107.439 16.2626 106.669 15.8928 105.9C14.4993 103.02 12.8994 100.184 11.3598 97.4425L10.6458 96.1627C7.58392 90.8297 5.12028 85.1714 3.30017 79.2919V79.2919C1.60187 73.7802 0.732125 68.0443 0.719727 62.2741C0.729492 59.3964 1.01756 56.5264 1.57988 53.7047C1.57988 53.6528 3.83347 47.5738 4.5904 47.3317C4.66928 47.3104 4.75235 47.3104 4.83124 47.3317C5.92519 45.8803 7.28586 44.6533 8.83953 43.7171C12.2439 41.4356 16.3276 40.4062 20.3999 40.803C26.0253 41.3564 30.4035 41.6677 34.6096 41.7715C35.7169 41.7046 36.8149 42.0087 37.7319 42.6362C38.2371 43.0729 38.5733 43.6743 38.6818 44.3351C38.7903 44.9959 38.6642 45.6741 38.3254 46.2508C37.4051 47.7381 35.4869 47.9283 34.1193 47.9802H33.9215C30.8446 47.8649 27.7857 47.4537 24.7867 46.7523C22.7051 46.3459 20.5548 45.8876 18.4216 45.7233H17.9743C16.4692 45.5107 14.9436 45.4874 13.4327 45.6541C12.7703 45.7407 12.0996 45.7407 11.4372 45.6541C10.725 45.5114 9.98994 45.5321 9.28681 45.7147C9.17226 45.7519 9.06877 45.8172 8.98575 45.9049C8.92006 46.0431 8.88207 46.1929 8.87394 46.3459L8.73631 47.2106C8.48849 48.5984 8.31335 49.9983 8.21162 51.4045C8.76242 52.3275 9.22606 53.3002 9.59646 54.31L9.73409 54.6818C9.91926 55.2455 10.1859 55.7787 10.5254 56.2643C11.8673 57.9937 14.8262 58.0802 17.4066 58.1494C18.2668 58.1494 18.9979 58.1494 19.686 58.2618L25.32 58.8585C26.4401 59.0097 27.5706 59.0704 28.7004 59.0401C30.7389 59.0328 32.7569 58.6306 34.644 57.8554C34.7642 57.7946 34.9026 57.781 35.0323 57.8171C35.162 57.8533 35.2736 57.9367 35.3455 58.051C35.4174 58.1654 35.4444 58.3025 35.4213 58.4358C35.3981 58.5691 35.3265 58.6889 35.2203 58.772C31.2464 61.8158 25.8189 62.7238 18.6366 61.5391C17.9055 61.4181 17.1486 61.3662 16.4088 61.3056C14.5443 61.3082 12.7065 60.8604 11.0501 59.9999C10.0127 59.3788 9.12672 58.5323 8.45697 57.5223C7.78723 56.5124 7.35072 55.3646 7.17944 54.163C7.07397 53.3026 7.04231 52.4347 7.08483 51.5688C6.49396 50.6163 5.80802 49.7268 5.03767 48.9141C4.7395 49.4386 4.49456 49.992 4.30655 50.5658C3.91395 52.0291 3.71441 53.538 3.71304 55.0537C3.50229 58.1227 3.50229 61.2026 3.71304 64.2716V64.4878C4.10871 68.8115 4.57319 73.6366 7.63532 76.8534C8.35381 77.5472 9.12767 78.1805 9.94912 78.7472C11.0925 79.5226 12.1182 80.4605 12.994 81.5316C14.9724 84.1863 14.938 87.5846 14.9036 90.836C14.9036 91.891 14.9036 92.9719 14.9036 94.0009C15.0872 97.217 16.034 100.342 17.6647 103.115C18.1635 103.98 18.7398 104.801 19.2989 105.614C20.8042 107.811 22.3611 110.076 22.6793 112.791C22.7192 113.058 22.7063 113.329 22.6414 113.59C22.5764 113.852 22.4607 114.097 22.3009 114.313C22.2044 114.43 22.0834 114.524 21.9466 114.588C21.8098 114.653 21.6605 114.686 21.5095 114.685L21.5267 114.72ZM4.32375 78.9806C6.11559 84.7865 8.54167 90.375 11.5576 95.6439L12.2715 96.915C13.8284 99.6735 15.4283 102.527 16.8389 105.433C17.2174 106.219 17.5442 107.006 17.8625 107.785C18.7226 109.851 19.5828 111.797 21.2257 113.423C21.4149 113.604 21.4837 113.63 21.5009 113.63C21.6136 113.425 21.653 113.187 21.6127 112.956C21.3289 110.509 19.8924 108.442 18.413 106.263C17.8453 105.398 17.2604 104.577 16.7443 103.669C15.0287 100.747 14.0292 97.4568 13.8284 94.0701C13.7682 92.9978 13.8284 91.8996 13.8284 90.8274C13.8284 87.5933 13.8972 84.5408 12.1081 82.1801C11.2952 81.1848 10.3452 80.3113 9.28681 79.5859C8.43238 78.9796 7.62967 78.3028 6.88699 77.5625C3.54961 74.1036 3.08513 69.0104 2.66366 64.5916V64.3754C2.44865 61.2546 2.44865 58.1226 2.66366 55.0018C2.66366 54.5262 2.70667 54.0592 2.74108 53.5836C2.69919 53.6907 2.6647 53.8005 2.63786 53.9122C2.10427 56.6672 1.83638 59.4675 1.83792 62.2741C1.84093 67.9315 2.68459 73.5566 4.34095 78.9633L4.32375 78.9806ZM8.23743 53.7479C8.23743 53.8431 8.23743 53.9295 8.23743 54.0247C8.38716 55.0644 8.76706 56.0571 9.34912 56.9296C9.93119 57.8021 10.7006 58.5322 11.6006 59.066C13.111 59.8381 14.7833 60.2354 16.4777 60.2247C17.2346 60.2766 18.0259 60.3372 18.7915 60.4669C23.5825 61.2538 27.5306 61.0895 30.7475 59.948C30.1282 60.0258 29.4659 60.0777 28.7434 60.121C27.5534 60.1608 26.3622 60.1001 25.1824 59.9394L19.5312 59.3427C18.8947 59.2735 18.1463 59.2562 17.3464 59.2303C14.6455 59.1698 11.2824 59.0833 9.60506 56.9301C9.17876 56.3272 8.85335 55.6583 8.6417 54.9499L8.51267 54.5867C8.47827 54.3014 8.36645 54.0247 8.24603 53.7479H8.23743ZM5.65698 47.9975C6.23394 48.5779 6.76861 49.1992 7.25686 49.8567C7.36868 48.8709 7.5235 47.9024 7.66973 46.9426L7.80735 46.0778C7.82353 45.9527 7.8465 45.8286 7.87617 45.706C7.0455 46.3696 6.30516 47.14 5.67418 47.9975H5.65698ZM15.0584 44.3916C16.0648 44.3916 17.0712 44.4954 18.0603 44.5905H18.5076C20.6924 44.798 22.8686 45.2218 24.9673 45.6282C27.96 46.3208 31.0148 46.7061 34.0849 46.7783C35.8482 46.7783 36.8976 46.3891 37.3793 45.5936C37.5859 45.2433 37.663 44.831 37.5969 44.4292C37.5308 44.0274 37.3258 43.6619 37.018 43.3972C36.2802 42.9376 35.4139 42.7313 34.5494 42.8092C30.3261 42.6881 25.9479 42.3941 20.2709 41.832C16.5878 41.4708 12.8905 42.3598 9.76849 44.357C10.3574 44.3221 10.9482 44.3482 11.5318 44.4349C12.1027 44.5115 12.6812 44.5115 13.2521 44.4349C13.8581 44.3761 14.4675 44.3616 15.0756 44.3916H15.0584Z" fill="#99B2B0" stroke="#739693" stroke-width="1.44" stroke-miterlimit="10"/>
<path d="M48.103 132.72C46.7956 132.725 45.4983 132.487 44.2756 132.018C44.1402 131.963 44.0315 131.856 43.9725 131.72C43.9447 131.652 43.9303 131.579 43.9303 131.506C43.9303 131.432 43.9447 131.359 43.9725 131.291C44.3535 130.344 45.3753 129.801 46.9946 129.687C48.3021 129.599 49.6616 129.634 51.099 129.687C52.1468 129.687 53.2032 129.739 54.2423 129.687C55.2345 129.01 56.0898 128.147 56.7621 127.145C57.9405 125.487 58.4514 123.437 58.1909 121.412C57.8012 119.037 55.7577 116.854 54.0345 115.829C53.3735 115.478 52.684 115.184 51.9736 114.952C50.8141 114.604 49.732 114.033 48.787 113.269C47.9731 112.533 45.5052 110.306 46.7521 107.782C47.0532 107.192 47.4825 106.68 48.0077 106.283L46.1893 106.213H45.8169C44.2859 106.112 42.75 106.112 41.2189 106.213C39.3377 106.386 37.444 106.066 35.7204 105.284C35.4112 105.149 35.1425 104.934 34.941 104.661C34.4994 103.986 34.7245 103.092 35.5645 102.207C37.3256 100.348 39.3095 98.7198 41.47 97.3598C42.4653 96.6029 43.6903 96.2216 44.9337 96.2816C45.3962 96.3576 45.8473 96.4931 46.2759 96.6848C46.475 96.7637 46.6742 96.8426 46.8734 96.904C47.8605 97.2283 48.6831 96.8338 49.6443 96.3693C50.0334 96.1758 50.4323 96.0032 50.8393 95.8521C50.7094 95.782 50.5881 95.6943 50.4669 95.6154C49.9253 95.2661 49.4903 94.7713 49.2105 94.1862C48.9307 93.6011 48.817 92.9488 48.8823 92.3021C49.2905 91.0226 49.9803 89.8537 50.8999 88.8836C51.6074 88.1055 52.3684 87.3791 53.1772 86.7097C53.5756 86.3591 53.9739 86.0085 54.3635 85.6491C54.4381 85.5776 54.5049 85.4983 54.5627 85.4124H54.4761C53.7206 85.674 53.0017 86.0335 52.3373 86.4818C52.0429 86.6659 51.7571 86.8412 51.4714 87.0077C50.7526 87.5903 49.8593 87.9077 48.9386 87.9077C48.0178 87.9077 47.1245 87.5903 46.4058 87.0077C46.085 86.7514 45.7213 86.5554 45.332 86.4292C45.0415 86.3806 44.7434 86.4077 44.4661 86.5081C44.1652 86.5972 43.8531 86.6415 43.5396 86.6396C41.5047 86.5695 40.353 85.316 40.379 83.2035C40.4943 81.6569 41.102 80.1898 42.1108 79.0224C42.6949 78.2939 43.1517 77.4698 43.4617 76.5856C43.8936 74.496 43.9755 72.3478 43.7041 70.2306C43.6522 69.5382 43.6089 68.872 43.5915 68.2409C43.4441 64.194 43.074 60.1585 42.4832 56.1533L42.336 55.1453C41.8077 51.4462 41.6605 50.4557 38.1103 48.7815C38.0406 48.7543 37.9771 48.7129 37.9239 48.6598C37.8707 48.6068 37.8288 48.5432 37.8008 48.4731C37.7728 48.4029 37.7594 48.3277 37.7613 48.2521C37.7632 48.1765 37.7805 48.1021 37.812 48.0335C37.8435 47.965 37.8886 47.9037 37.9444 47.8534C38.0003 47.8032 38.0658 47.7651 38.1368 47.7416C38.2077 47.718 38.2828 47.7095 38.3572 47.7165C38.4315 47.7235 38.5037 47.7459 38.5692 47.7823C42.6563 49.7019 42.8988 51.1482 43.4097 54.9875L43.5569 55.9868C44.1631 60.0315 44.5361 64.1085 44.6739 68.1971C44.6739 68.8194 44.7432 69.4768 44.7865 70.1517C45.0728 72.3983 44.9791 74.6777 44.5094 76.8924C44.1632 77.896 43.6507 78.8327 42.9941 79.6623C42.135 80.6401 41.6018 81.8668 41.47 83.1685C41.47 84.6849 42.1368 85.4387 43.5742 85.4913C43.7887 85.4856 44.0014 85.4502 44.2063 85.3861C44.6584 85.2479 45.1371 85.2238 45.6005 85.316C46.1216 85.4665 46.6095 85.7164 47.0379 86.0523C47.59 86.5185 48.2882 86.7703 49.0072 86.7622C49.7261 86.7542 50.4187 86.487 50.9605 86.0085C51.2462 85.8507 51.532 85.6754 51.8264 85.5088C52.5696 84.9991 53.38 84.5978 54.2337 84.3167C54.4453 84.2282 54.6774 84.2027 54.9029 84.243C55.1284 84.2834 55.3378 84.388 55.5066 84.5446C55.5962 84.6368 55.6663 84.7465 55.7125 84.8671C55.7587 84.9877 55.7799 85.1166 55.775 85.2459C55.7143 85.6983 55.4926 86.1129 55.1515 86.4117C54.7619 86.7798 54.3462 87.1305 53.9392 87.4898C53.1683 88.1245 52.4448 88.8159 51.7745 89.5585C50.9869 90.373 50.3944 91.3596 50.0426 92.4423C50.0155 92.8813 50.1068 93.3195 50.3065 93.7101C50.5063 94.1007 50.8072 94.429 51.177 94.66C51.8481 95.0875 52.5734 95.4207 53.3331 95.6505C53.9163 95.8032 54.48 96.0238 55.013 96.3079C56.0671 96.7795 57.0759 97.3487 58.0264 98.0084L59.7062 99.0778C60.9185 99.8842 62.1914 100.901 62.4339 102.417C62.4536 102.539 62.4328 102.663 62.3748 102.771C62.3168 102.879 62.2248 102.964 62.1135 103.013C62.0015 103.062 61.8766 103.071 61.7589 103.039C61.6412 103.007 61.5374 102.937 61.4641 102.838C60.338 101.33 58.9783 100.015 57.4375 98.9463C56.5716 98.4379 55.775 97.9558 54.9264 97.5L54.5454 97.3072C54.2337 97.1669 53.9306 97.0442 53.6189 96.9215L53.0474 96.7199C52.7812 96.6542 52.507 96.6276 52.2334 96.641C51.5159 96.7318 50.8222 96.9609 50.1898 97.3159C49.6667 97.6525 49.0816 97.878 48.4699 97.979C47.8581 98.0799 47.2325 98.0541 46.6309 97.9032C46.4058 97.8331 46.1893 97.7454 45.9642 97.6578C45.6173 97.5027 45.2542 97.388 44.8818 97.3159C43.8908 97.3121 42.9261 97.6386 42.1368 98.2451C40.0206 99.5475 38.0769 101.117 36.3525 102.917C35.9974 103.285 35.703 103.794 35.8502 103.986C35.9468 104.093 36.065 104.176 36.1966 104.232C37.7479 104.92 39.4455 105.2 41.1323 105.047C42.7067 104.946 44.2858 104.946 45.8602 105.047H46.2326C47.5661 105.108 48.9083 105.161 50.2591 105.196C51.3712 104.978 52.5043 104.89 53.6362 104.933H61.949C62.0797 104.931 62.2066 104.977 62.3067 105.062C62.4068 105.147 62.4734 105.266 62.4944 105.397C62.5154 105.527 62.4894 105.661 62.421 105.774C62.3527 105.887 62.2467 105.971 62.1222 106.011C60.8188 106.38 59.4641 106.529 58.113 106.45C55.5152 106.45 52.9175 106.397 50.3717 106.318L50.1985 106.371C49.6831 106.492 49.198 106.72 48.7734 107.04C48.3489 107.359 47.9939 107.764 47.7306 108.229C47.1331 109.439 47.7306 110.762 49.4625 112.401C50.3097 113.068 51.2731 113.567 52.3027 113.874C53.0786 114.137 53.8293 114.472 54.5454 114.873C56.485 116.021 58.7711 118.502 59.2213 121.219C59.5265 123.526 58.9538 125.863 57.6194 127.758C57.1767 128.424 56.6563 129.033 56.0694 129.573C57.3778 129.467 58.6596 129.141 59.8621 128.609C64.1917 126.566 68.7637 121.859 71.7771 118.747C79.3539 110.92 84.8871 102.479 88.2296 93.652C90.8706 86.6396 92.5591 79.2328 94.213 72.0363C94.8581 69.4372 95.3583 66.8034 95.7111 64.1474C96.0142 61.4476 95.9016 57.8363 93.6156 55.9517C92.2549 54.9427 90.5561 54.5175 88.8877 54.7684C88.8268 54.9327 88.7515 55.0911 88.6625 55.2417C88.2453 55.8639 87.6832 56.3726 87.0259 56.7231C81.722 60.061 75.4839 61.5481 69.266 60.9568C68.9542 60.9568 67.8718 60.6412 66.1227 60.1767C64.997 59.8874 63.5249 59.4929 63.1526 59.4403C63.0798 59.4432 63.0071 59.4316 62.9388 59.406C62.8704 59.3804 62.8077 59.3415 62.7543 59.2913C62.704 59.2408 62.6641 59.1807 62.6369 59.1145C62.6097 59.0484 62.5956 58.9774 62.5956 58.9057C62.5956 58.834 62.6097 58.763 62.6369 58.6968C62.6641 58.6306 62.704 58.5705 62.7543 58.52C64.2263 56.9597 66.4517 57.5908 68.4174 58.1431L69.3785 58.406C73.7081 59.5017 77.2584 57.9239 81.0338 56.2585C83.2433 55.1829 85.5676 54.3682 87.9611 53.8305C87.9833 53.5153 87.9833 53.1989 87.9611 52.8838C87.9611 51.753 87.9611 50.6223 87.8918 49.5003C87.9285 48.4182 87.7761 47.3381 87.4416 46.3097C87.0486 45.309 86.3928 44.436 85.5452 43.7852C82.9908 43.9605 80.2285 44.3024 77.1545 44.8196C75.1196 45.1614 73.0154 45.626 70.9805 46.0818C67.2026 47.0424 63.3491 47.6671 59.4638 47.9488C59.1043 47.9855 58.7422 47.9135 58.4231 47.7419C58.1041 47.5703 57.8425 47.3067 57.6713 46.9846C57.5198 46.6503 57.4571 46.2816 57.4895 45.9152C57.6627 41.0942 62.9015 40.7699 66.3652 40.5508L67.3696 40.4806C71.6231 40.0473 75.9117 40.112 80.1506 40.6735C82.1693 40.9132 84.113 41.5919 85.8483 42.6633C88.54 42.4836 91.2416 42.5217 93.9273 42.7772C93.6935 42.3828 93.4683 41.962 93.2519 41.5237C91.4794 38.0262 90.1526 34.315 89.3033 30.4793C89.0262 29.1907 88.7924 27.8496 88.5673 26.6049C88.1983 24.2009 87.6542 21.8277 86.9393 19.5049C85.2152 14.623 82.0081 10.4191 77.7779 7.4962C72.6675 8.12193 67.6047 9.09712 62.6244 10.4151C57.3596 11.7562 50.796 13.4217 45.7217 10.3099C44.3709 9.48596 43.6781 8.39028 43.808 7.2946C43.9234 6.81557 44.1372 6.36656 44.4357 5.97688C44.7341 5.5872 45.1103 5.26561 45.5398 5.03311C52.1208 0.431239 61.2909 -0.559259 70.0886 2.40347C72.9313 3.34573 75.6302 4.68517 78.107 6.38299C82.041 5.94526 86.0068 5.8807 89.9527 6.19015C94.4728 6.5846 97.9018 7.5225 100.733 9.15287C102.429 10.067 103.912 11.3377 105.083 12.8798C106.254 14.4218 107.086 16.1996 107.522 18.0937C108.18 21.5998 107.081 25.1586 105.894 28.4983C105.871 28.5666 105.834 28.6296 105.787 28.6835C105.739 28.7374 105.682 28.7811 105.617 28.8121C105.553 28.8431 105.483 28.8608 105.411 28.8641C105.34 28.8674 105.269 28.8563 105.202 28.8313C105.134 28.8069 105.071 28.769 105.018 28.72C104.965 28.671 104.921 28.6117 104.891 28.5457C104.86 28.4797 104.843 28.4082 104.84 28.3354C104.837 28.2626 104.848 28.1898 104.872 28.1213C106.007 24.9219 107.055 21.5297 106.457 18.2953C106.05 16.5589 105.281 14.9308 104.201 13.5202C103.121 12.1096 101.756 10.9493 100.197 10.1171C97.5035 8.56559 94.213 7.67151 89.8575 7.2946C86.3984 7.01246 82.9216 7.03592 79.4665 7.36472C83.4384 10.344 86.4512 14.4459 88.1256 19.1543C88.8595 21.5277 89.4153 23.9539 89.7882 26.4121C90.0133 27.6831 90.2471 28.9891 90.5242 30.2513C91.3527 33.9958 92.6475 37.6186 94.3776 41.0329C94.7021 41.6902 95.0635 42.3282 95.46 42.9437C96.7349 43.0353 97.9726 43.4189 99.0795 44.0657C99.6852 44.431 100.175 44.9647 100.489 45.6034C100.804 46.2421 100.931 46.9588 100.855 47.6683C100.83 47.8163 100.749 47.9485 100.629 48.0365C100.569 48.077 100.501 48.1048 100.43 48.1184C100.358 48.1319 100.285 48.1309 100.214 48.1154C98.2049 47.6859 96.4298 46.3623 94.8278 43.9781C92.3047 43.6835 89.7622 43.5955 87.2251 43.7151C87.8245 44.3464 88.2953 45.091 88.6106 45.9065C88.9933 47.0548 89.1721 48.2626 89.1388 49.474C89.1388 50.6135 89.1994 51.7443 89.208 52.8838C89.208 53.1555 89.208 53.4272 89.208 53.6902C91.0605 53.4952 92.917 54.0183 94.4035 55.154C96.5164 56.9071 97.3823 60.0627 96.8974 64.3227C96.5367 67.0192 96.0308 69.6937 95.382 72.3344C93.7281 79.5571 92.0223 87.034 89.3206 94.0902C85.9349 103.057 80.3237 111.621 72.6431 119.563C69.569 122.736 64.9364 127.53 60.4076 129.652C58.5743 130.433 56.6036 130.829 54.6147 130.818C52.6669 132.065 50.408 132.725 48.103 132.72V132.72ZM45.384 131.23C47.647 131.869 50.0571 131.718 52.2247 130.8H51.0644C49.653 130.8 48.3194 130.73 47.0725 130.8C46.4844 130.801 45.9052 130.945 45.384 131.221V131.23ZM64.6593 58.6865L66.3911 59.1511C67.6121 59.4667 69.1274 59.8611 69.3872 59.8962C75.3637 60.4656 81.3596 59.0337 86.4544 55.8202C86.8249 55.6099 87.1681 55.3537 87.4762 55.0576C85.4132 55.6058 83.4044 56.3453 81.4754 57.2665C77.7 58.932 73.7861 60.65 69.1188 59.4666C68.7984 59.3878 68.4693 59.2913 68.1316 59.1949C67.0239 58.7738 65.8399 58.5975 64.6593 58.6778V58.6865ZM73.7341 41.2958C71.6213 41.2958 69.5431 41.4185 67.5341 41.5763L66.5124 41.6377C62.2867 41.9094 58.7797 42.4178 58.6498 45.9415C58.6355 46.1263 58.6621 46.312 58.7278 46.485C58.815 46.6068 58.9317 46.7038 59.0666 46.7668C59.2016 46.8297 59.3503 46.8564 59.4984 46.8444C63.3195 46.56 67.1091 45.9412 70.8246 44.9949C72.8768 44.5391 74.9897 44.0657 77.0592 43.7239C79.5357 43.3031 81.8218 42.9963 83.9866 42.8473C82.7362 42.3333 81.4271 41.9799 80.0899 41.7955C77.9875 41.4597 75.8625 41.2897 73.7341 41.2871V41.2958ZM96.2479 44.1797C97.1302 45.3736 98.3323 46.2862 99.7116 46.8093C99.5363 46.039 99.0701 45.3689 98.4127 44.9423C97.7503 44.5562 97.0216 44.3004 96.2653 44.1884L96.2479 44.1797ZM60.0266 1.81618C55.0829 1.73008 50.2301 3.16681 46.1114 5.93595C45.5831 6.31287 44.9597 6.8125 44.8818 7.43484C44.7692 8.31139 45.8169 9.09152 46.2759 9.37201C50.9605 12.2383 57.0133 10.7044 62.356 9.37201C66.966 8.15615 71.6448 7.22529 76.3665 6.58459C74.2715 5.28067 72.034 4.22759 69.6989 3.44655C66.5811 2.38536 63.3159 1.83498 60.0266 1.81618Z" fill="#99B2B0" stroke="#739693" stroke-width="1.44" stroke-miterlimit="10"/>
</svg>
