<svg width="48" height="48" viewBox="0 0 48 48" fill="none" xmlns="http://www.w3.org/2000/svg">
<path d="M23.4765 14.0733C24.4563 14.0733 26.0998 12.2718 26.321 9.93293C26.5423 7.59408 24.8672 5.50806 23.0024 5.50806C21.1376 5.50806 19.905 7.40444 20.1894 9.93293C20.3159 10.8495 20.7773 12.8407 21.6117 13.4728C21.5485 14.5158 21.6749 15.4008 20.1894 15.9381C18.7039 16.4754 16.5863 16.1909 16.2071 18.277C15.8278 20.363 15.3853 25.736 15.2273 26.3365C15.0692 26.937 13.1413 30.1293 12.7304 30.793C12.3195 31.4567 10.8972 35.0914 10.0123 35.692C9.12728 36.2925 9.2221 35.692 8.30552 35.692C7.38894 35.692 6.97808 36.3241 6.97808 37.3987C6.97808 38.4733 6.50397 38.5365 6.1247 38.7261C5.74543 38.9158 7.35734 40.4329 8.52676 39.2318C9.69619 38.0308 10.7392 35.9764 11.3397 35.4391C11.9402 34.9018 15.6065 31.5831 16.2071 30.3821C16.7169 29.3625 17.5228 25.8373 17.8707 24.0607M17.6244 32.4127C17.8456 31.8121 20.1894 30.3821 20.1894 28.0143C20.1894 26.5306 18.6076 25.8399 18.1323 24.0607" stroke="#547572" stroke-width="2" stroke-linecap="round"/>
<path d="M7.89658 40.1417C8.25278 41.77 11.8146 41.9735 13.2394 41.5665C14.3792 41.2408 20.893 39.171 23.6916 38.4078" stroke="#547572" stroke-width="2" stroke-linecap="round"/>
<path d="M33.6011 36.5766C31.3113 35.2537 26.9027 35.7119 24.7147 35.661C22.5267 35.6101 22.5065 33.7222 21.3755 33.2375C19.5153 32.4405 13.9008 31.3962 13.9008 35.0535C13.9008 35.5623 14.2739 35.7722 17.0831 36.2565C19.1227 36.6082 23.1307 38.0436 25.0443 38.9207C26.2655 39.4804 33.2366 41.6684 35.679 41.6684C38.1214 41.6684 38.8404 39.6212 38.8404 37.1657" stroke="#547572" stroke-width="2" stroke-linecap="round"/>
<path d="M25.0168 13.2149C25.0168 14.3977 25.1711 15.4777 26.2511 15.6834C27.3311 15.8891 27.9996 16.0948 28.5139 16.1462C29.0282 16.1977 30.6224 17.0205 30.6224 18.1519C30.6224 19.2833 31.651 25.2489 31.7538 25.9689C31.8253 26.4695 32.9322 27.5448 33.8109 28.7069C35.1032 30.416 36.3681 32.3091 36.9375 32.8073C37.7603 33.5273 38.6016 33.5218 39.2702 33.8304C41.2435 36.9312 37.683 38.3937 36.2622 36.5519C35.3372 35.3528 32.4869 32.7194 30.2463 29.6152C29.1236 28.0597 28.7027 23.8983 28.5139 23.5206M33.8109 33.8304C32.5424 33.4018 29.3779 32.2533 28.5139 31.4716C27.4339 30.4945 27.1254 28.4374 27.9482 25.6089C28.5592 24.9146 28.6753 24.3103 28.6528 23.5206" stroke="#547572" stroke-width="2" stroke-linecap="round"/>
</svg>
