<svg width="201" height="131" viewBox="0 0 201 131" fill="none" xmlns="http://www.w3.org/2000/svg">
<path d="M42.1142 13.1424C44.7151 13.1217 47.2538 12.7184 49.7787 12.1677C53.3978 11.3774 57.9823 10.5502 61.4102 12.465C62.3271 12.9765 63.0897 13.7208 63.9651 14.2991C64.8359 14.8728 65.8196 15.2784 66.8424 15.4834C67.0682 15.5272 67.3101 15.5733 67.4691 15.7392C67.6902 15.9742 67.6441 16.3659 67.4737 16.6424C67.3032 16.9189 67.0383 17.1194 66.8171 17.3567C62.9445 21.4927 71.8669 24.6978 74.6544 24.3798C76.813 24.1332 80.8146 21.0365 78.6422 18.5503C78.2966 18.1563 77.776 17.9719 77.2761 17.8106C75.2211 17.147 72.1548 17.5341 70.3441 16.3198C68.8559 15.3198 67.6464 12.5272 67.3815 10.7784C67.2617 9.98111 67.294 9.17235 67.3285 8.3682C67.3769 7.17004 67.4276 5.97187 67.476 4.77371C67.5128 3.88661 67.575 2.93039 68.1348 2.24145C68.7937 1.42578 69.941 1.22531 70.9846 1.11932C72.7354 0.939599 74.4977 0.854347 76.2578 0.868172C78.6583 0.884301 81.4366 1.30365 82.6622 3.36588C83.3786 4.57325 83.3717 6.06173 83.3418 7.46497C83.321 8.44423 83.2796 9.49262 82.7036 10.2852C81.2339 12.306 76.7577 11.5802 74.6705 11.2277C70.7611 10.5641 67.0014 9.27374 63.2855 7.9235C61.1177 7.13317 58.8876 6.47879 56.577 6.28294C53.7158 6.0433 50.8453 6.51105 48.0094 6.97649C45.6343 7.36589 43.2591 7.7553 40.8839 8.1447C38.2692 8.57327 35.6107 9.02027 33.1342 9.99493C30.8143 10.9051 29.1626 12.5525 27.0385 13.7138C21.7261 16.6217 17.4296 20.647 12.4167 23.9512C9.32101 25.9888 6.22531 28.0275 3.12988 30.0664M24.8615 28.5711C26.2483 29.0296 27.626 29.5411 28.8953 30.2646C29.5703 30.6494 30.2108 31.0941 30.9134 31.4236C32.4016 32.1241 34.0948 32.2761 35.7374 32.1886C41.8815 31.8637 47.5164 28.3982 53.6535 27.9835C54.423 27.9305 55.1971 27.9259 55.9665 27.9789C58.4845 28.1448 60.9264 28.889 63.4145 29.3015C67.7547 30.0204 72.2401 29.26 75.8408 26.6402C73.1777 27.3061 70.6413 28.3959 68.1187 29.4812C67.8031 29.6171 67.4645 29.7715 67.2871 30.0664C67.1074 30.366 67.1696 30.7393 67.1604 31.0872C67.0728 33.9374 66.9461 36.7462 66.9162 39.5941C64.7898 38.843 62.4607 39.4052 60.2307 39.7393C57.9408 40.0849 55.5772 40.1886 53.4232 41.0411C51.2692 41.8914 49.2995 43.7232 49.1244 46.0343C49.1198 46.1034 49.1175 46.1794 49.1544 46.237C49.2788 46.4329 49.5667 46.2186 49.6957 46.025C50.3062 45.1218 51.3199 44.5043 52.4003 44.3776C53.7204 44.2232 55.0128 44.7647 56.2153 45.3292C57.2912 45.8338 58.4039 46.4144 59.0305 47.4237C59.6571 48.4329 59.5534 49.9859 58.5144 50.5642C58.1458 50.7693 57.7127 50.8269 57.2912 50.8638C54.5681 51.0896 51.7829 50.5412 49.3479 49.2993C49.0369 49.1403 48.6821 48.873 48.7512 48.5297C49.4055 48.4029 50.062 48.6771 50.6679 48.9559C52.656 49.873 54.7432 51.244 56.9179 51.5481C59.2516 51.8753 61.5738 52.5596 63.8729 53.1057C64.8566 53.3384 66.126 53.4629 66.6558 52.6011C66.8447 52.2924 66.8862 51.9191 66.9208 51.5573C67.1442 49.2094 67.2686 46.8522 67.294 44.4951C67.3009 43.7462 67.2594 42.9006 66.6996 42.4006C66.3287 43.4052 66.4462 44.5158 66.5406 45.5826C66.7088 47.4628 66.6973 49.3523 66.7042 51.2394C66.7134 52.8016 66.46 54.2947 66.5061 55.8454C66.665 61.2279 66.6604 66.6334 66.6651 72.009C66.6651 73.3593 66.5199 74.7464 66.5821 76.092C66.6489 77.5091 68.1187 77.5989 68.5311 78.6496C68.7038 79.0874 68.2339 79.592 68.6255 80.0252C69.107 80.5529 69.6783 80.0436 70.2289 80.1289C69.8972 80.2141 69.5562 80.304 69.2821 80.5091C68.7246 80.9284 68.9711 81.2602 69.084 81.7764C69.2153 82.3708 69.2568 82.327 69.0771 82.9123C68.7476 83.9791 68.28 85.0183 68.7568 86.1381C69.0609 86.8547 69.7336 87.4838 69.6461 88.2579C69.6069 88.6151 69.418 89.0321 69.6645 89.2948C69.9294 89.5782 70.3879 89.3686 70.7403 89.2119C71.6849 88.7948 72.7676 88.8893 73.7951 88.993C74.7673 89.0921 75.7395 89.1888 76.7116 89.2879C77.0503 89.3225 77.4281 89.3755 77.64 89.6428C77.7898 89.8294 77.822 90.0805 77.8474 90.3179C78.0109 91.7511 78.3081 93.4031 77.2369 94.5114C76.2924 95.4884 74.9907 96.5207 73.5394 96.2372C72.5741 96.0483 70.8072 94.8893 70.2381 94.0852C69.5678 93.1382 69.9732 90.8939 70.2312 89.8109C70.2773 89.622 70.2888 89.357 70.1022 89.304C71.0053 89.0298 72.0949 88.4907 73.0326 88.5598C73.9587 88.6266 74.8986 89.2418 75.7878 89.4861C76.4905 89.6773 77.6423 89.6888 78.2943 89.3271C78.7182 89.0921 79.0223 88.6128 78.967 88.1289C78.9163 87.6957 78.5984 87.3271 78.5638 86.8916C78.5178 86.3271 78.9532 85.8132 78.9278 85.2487C78.8933 84.4814 78.0754 84.0298 77.3705 83.728C75.9261 83.1128 74.424 82.4837 72.8529 82.5344C72.3345 82.5505 71.7264 82.7118 71.5467 83.198C73.0095 83.4653 74.4862 83.6635 75.9675 83.7971C76.5849 83.8524 77.2162 83.8962 77.8174 83.7487C78.421 83.6035 78.9992 83.2395 79.2573 82.675C79.695 81.7141 79.0338 80.5575 78.1354 79.9998C76.0666 78.7187 72.7953 78.4745 70.821 80.0552C71.7356 80.7602 73.0441 80.4054 74.1407 80.0413C75.2372 79.6773 76.5757 79.3777 77.4373 80.1473C77.7069 80.3869 77.905 80.7164 78.2298 80.8708C79.1029 81.2879 79.6236 80.4261 80.0267 79.8708C80.5727 79.122 81.4159 78.4468 81.6854 77.5298C81.8006 77.1358 81.7983 76.7187 81.7914 76.3086C81.6831 70.0781 82.0517 63.8131 82.2153 57.585C82.3351 52.9928 82.4548 48.3983 82.5608 43.8061C82.6645 39.313 83.0676 34.737 82.8649 30.2669C82.8396 29.6932 83.2381 17.5457 83.192 16.9742C83.1667 16.6609 83.0538 16.2599 82.7405 16.2415C82.5009 16.2277 82.2613 16.3429 81.8236 18.4881C81.6601 19.2922 81.0818 23.6425 81.0311 24.4627C80.886 26.7899 80.7132 33.5319 81.637 37.6172C81.9642 39.0688 82.6207 40.4651 83.5791 41.6103C84.1112 42.2485 86.1316 44.3361 86.9656 43.1264C87.1982 42.7877 87.1821 42.3292 87.0554 41.9375C86.9287 41.5527 86.7098 41.2047 86.4933 40.8614C86.3297 40.6011 86.1639 40.3407 85.9565 40.1126C85.8759 40.0227 85.7884 39.9398 85.7192 39.8407C85.3138 39.2646 85.3552 38.5135 85.6709 37.9398C86.1316 37.101 86.597 36.2577 87.1913 35.5043C87.8295 34.6955 88.615 34.1655 89.4835 33.6333C89.5365 33.6379 89.5872 33.6448 89.6402 33.6517C90.0295 33.7047 90.435 33.7623 90.7575 33.9858C91.1054 34.2301 91.3058 34.6402 91.3841 35.0596C91.626 36.3637 90.9764 37.7854 90.4166 38.9329C89.8452 40.108 89.1979 41.214 88.2971 42.1702C88.2004 42.2739 88.0483 42.3845 87.9285 42.3084C87.7857 42.2186 87.864 41.9997 87.9562 41.8591C89.426 39.6195 91.1745 37.4513 92.0107 34.8844C92.407 33.6609 92.6581 32.389 92.7571 31.1056C93.1027 26.6517 91.6491 22.2807 90.2138 18.0503C89.9466 17.2622 89.677 16.4696 89.2647 15.7484C87.8594 13.2922 85.5372 12.8014 83.01 12.3567C83.0308 12.2346 83.1506 12.2783 83.1321 12.3106" stroke="#99B2B0" stroke-width="1.73333" stroke-miterlimit="10" stroke-linecap="round" stroke-linejoin="round"/>
<path d="M65.0354 60.8478C62.529 61.0598 59.9787 61.2672 57.5206 60.728C54.9796 60.1704 52.6782 58.8432 50.2224 57.9792C48.3633 57.3271 46.571 56.5828 44.7165 55.9331C43.9816 55.675 43.2306 55.41 42.6132 54.9331C42.4081 54.7741 42.2123 54.5851 42.1179 54.3409C41.9865 53.9953 42.0787 53.6105 42.1778 53.2533C42.6339 51.6105 42.7491 51.0851 44.5138 50.88C45.919 50.7164 47.3612 50.8708 48.6973 51.3409C50.2754 51.8962 55.1017 54.6796 52.9224 56.8225C52.381 57.3547 51.5447 57.4169 50.7868 57.4446C49.9644 57.4768 49.142 57.5091 48.3195 57.5414C47.8772 57.5598 47.3888 57.5967 47.0755 57.91C46.6677 58.3225 46.7714 59.0506 47.1423 59.4953C47.5132 59.9423 48.073 60.175 48.6121 60.3939C49.9275 60.9285 51.243 61.4607 52.5584 61.9953C53.0652 62.2004 53.5835 62.4077 54.1295 62.4423C54.6755 62.4746 55.2653 62.3018 55.5993 61.8686C55.6984 61.7395 55.7744 61.5759 55.7375 61.4193C55.6984 61.2626 55.5026 61.1428 55.3666 61.2326C55.3021 61.2741 55.2676 61.3478 55.2307 61.4123C54.8713 62.0506 54.0351 62.2557 53.3071 62.1935C52.5768 62.1312 51.8719 61.8686 51.1416 61.8409C50.9872 61.963 51.1831 62.1935 51.3558 62.2833C52.5976 62.9285 53.8393 63.5736 55.081 64.2188C56.7857 65.1036 58.5181 66.0022 60.3888 66.4769C61.6489 66.7972 63.0104 66.8502 64.2982 66.9953C64.5032 67.0184 64.7129 67.0414 64.9087 66.9838C65.1045 66.9262 65.2865 66.7695 65.3049 66.5644C65.3395 66.2096 64.9156 66.0045 64.5654 65.9331C62.575 65.5253 60.6076 65.6405 58.6748 64.9331C56.8157 64.2511 55.0971 63.2303 53.2057 62.6266C50.743 61.8409 48.0454 61.8271 45.5642 62.5529C38.8604 64.5161 32.0459 65.3709 25.1071 65.9147C16.6363 66.5783 8.74826 62.8824 0.867188 67.9953M81.2814 129.401C87.9368 120.896 99.5707 110.182 109.157 105.201C117.821 100.698 124.829 102.242 132.804 106.86C141.453 111.869 149.472 112.028 159.371 112.684C166.409 113.152 173.352 114.643 180.395 115.037C181.233 115.083 182.109 115.108 182.881 114.774C183.671 114.433 184.261 113.758 184.82 113.104C185.935 111.8 187.053 110.496 188.117 109.15C189.232 107.74 190.306 106.258 190.911 104.565C191.508 102.906 191.63 101.118 191.745 99.3572C192.46 100.267 192.176 101.682 191.386 102.528C188.032 106.122 183.178 103.187 179.109 103.638C177.052 103.866 175.198 104.924 173.242 105.599C171.549 106.187 169.772 106.486 168.005 106.784C163.377 107.565 158.749 108.343 154.121 109.125C152.282 109.436 150.2 109.689 148.719 108.555C149.569 107.678 150.847 107.399 152.054 107.205C156.095 106.56 160.217 106.431 164.29 106.82C166.31 107.014 168.328 107.334 170.355 107.274C172.56 107.207 174.723 106.694 176.868 106.18C177.589 106.007 178.317 105.832 178.99 105.521C182.307 103.977 181.92 100.025 184.463 98.0185C185.88 96.901 187.88 97.0323 189.674 97.2189C185.813 94.1429 180.485 92.818 175.672 92.7904C173.163 92.7765 170.685 92.2904 168.222 91.8065C165.317 91.2351 162.398 90.659 159.62 89.6314C155.217 88.0046 151.428 85.341 147.786 82.4816C136.695 73.7833 106.331 69.1235 94.2721 74.7926C76.4483 83.1659 58.7082 96.2592 39.9293 105.936C27.4546 112.362 14.9798 118.788 2.50502 125.214" stroke="#99B2B0" stroke-width="1.73333" stroke-miterlimit="10" stroke-linecap="round" stroke-linejoin="round"/>
<path d="M194.182 100.833C196.896 96.5629 198.573 91.6896 199.509 86.7173C199.707 85.6573 199.822 84.4131 199.071 83.6389C198.712 83.2656 198.202 83.0721 197.693 82.9684C194.751 82.3716 191.936 84.5214 190.172 86.9477C188.405 89.3739 187.175 92.2403 184.931 94.2311L185.903 93.5237" stroke="#99B2B0" stroke-width="1.73333" stroke-miterlimit="10" stroke-linecap="round" stroke-linejoin="round"/>
<path d="M185.903 93.5246C184.65 95.4878 181.445 94.0431 180.358 93.1421C179.298 92.2619 178.695 90.9301 178.437 89.5799C178.13 87.9762 178.46 86.414 178.328 84.8287C178.183 83.0638 177.769 81.3195 177.098 79.6813C176.389 77.9485 175.405 76.3425 174.426 74.748C173.226 72.7918 172.025 70.8356 170.823 68.8771C169.224 66.2711 166.423 64.7434 163.283 65.4416C162.066 65.7134 160.949 66.3079 159.875 66.9416C157.3 68.4646 154.876 70.2457 152.658 72.2526C153.301 73.9969 154.814 75.3195 156.512 76.0775C158.21 76.8356 160.087 77.0891 161.942 77.2158C164.471 77.3863 167.34 77.1951 169.026 75.2987C167.784 75.6974 166.824 76.4877 165.487 76.4416C164.283 76.4001 163.465 77.3218 163.103 78.4531C162.764 79.513 162.87 80.6674 163.156 81.7435C163.442 82.8172 163.9 83.8356 164.278 84.8817C164.541 85.6098 164.764 86.3564 165.135 87.0361C165.506 87.7158 166.045 88.3357 166.761 88.6306C166.294 85.5937 165.285 82.6421 163.792 79.9577C162.714 78.0176 161.278 76.854 159.461 75.672C158.482 75.0361 157.496 74.4093 156.496 73.8056C155.809 73.3909 155.091 73.0015 154.305 72.8264C153.043 72.543 151.725 72.9024 150.462 72.8909C147.696 72.8679 144.364 73.5845 141.934 72.1052C139.927 70.8863 136.377 69.3102 137.76 66.324C138.75 64.1835 140.467 66.6282 141.595 67.4531C142.65 68.2204 143.805 68.6789 145.009 68.1305C145.68 67.8241 147.627 66.6697 147.693 65.9047C147.721 65.5959 147.567 65.301 147.394 65.0452C145.827 62.7342 142.024 62.4438 140.126 64.4899C143.505 64.248 146.578 61.8955 149.956 62.1743C151.937 62.3356 153.743 63.4047 155.243 64.7134C156.514 65.824 157.811 67.2065 159.5 67.2342" stroke="#99B2B0" stroke-width="1.73333" stroke-miterlimit="10" stroke-linecap="round" stroke-linejoin="round"/>
<path d="M144.586 63.1126C141.172 62.0457 137.597 61.5043 134.019 61.5135C132.671 61.5158 131.077 61.6448 130.01 62.5642C129.458 63.0411 129.195 63.7508 128.861 64.3683C127.833 66.2693 129.693 67.8614 131.264 68.5227C134.669 69.9513 138.454 69.7578 141.799 71.2946C144.068 72.3384 146.061 74.1587 146.904 76.5112C147.279 77.5619 147.067 78.6057 147.272 79.638C147.498 80.7808 148.27 81.9675 148.827 82.9813C148.977 83.2532 149.131 83.5228 149.316 83.7716C150.622 85.5643 153.476 86.4998 155.365 87.5205C155.305 87.2786 155.656 87.1841 155.895 87.115C156.333 86.9929 156.649 86.5896 156.78 86.1541C156.909 85.7187 156.884 85.2532 156.833 84.7993C156.473 81.6288 154.868 79.449 153.244 76.8684" stroke="#99B2B0" stroke-width="1.73333" stroke-miterlimit="10" stroke-linecap="round" stroke-linejoin="round"/>
</svg>
