<svg width="200" height="200" viewBox="0 0 200 200" fill="none" xmlns="http://www.w3.org/2000/svg">
<g clip-path="url(#clip0_395_2929)">
<path d="M25.9914 174C25.808 174.005 25.626 173.965 25.4618 173.883C25.2977 173.801 25.1564 173.679 25.0505 173.53C24.9395 173.334 24.8877 173.11 24.9013 172.886C24.915 172.662 24.9936 172.446 25.1275 172.265C25.2851 172.061 25.4759 171.885 25.6921 171.744C25.3585 171.881 25.0163 172.009 24.6742 172.12C24.332 172.231 21.9285 172.915 21.2527 172.299C21.1557 172.217 21.0824 172.11 21.0403 171.99C20.9983 171.87 20.9889 171.741 21.0132 171.616C21.0432 171.441 21.1269 171.28 21.2527 171.155C21.6031 170.8 22.0391 170.541 22.5187 170.403C24.1349 169.815 25.6348 168.947 26.9494 167.84L26.3764 167.976C26.07 168.091 25.7399 168.128 25.4158 168.083C25.0917 168.038 24.7839 167.914 24.5202 167.72C24.2561 167.412 24.0946 167.03 24.0583 166.626C24.007 166.362 23.9557 166.097 23.8958 165.823C23.6839 164.986 23.5861 164.124 23.605 163.26C23.6374 162.93 23.7033 162.603 23.8017 162.286C23.853 162.115 23.8958 161.953 23.93 161.782C23.9563 161.605 24.0222 161.437 24.1229 161.289C24.2237 161.141 24.3565 161.017 24.5116 160.928C24.6366 160.871 24.7734 160.846 24.9104 160.853C25.0473 160.861 25.1805 160.901 25.2986 160.971C26.0085 161.347 26.077 162.338 26.154 163.055C26.154 163.2 26.154 163.337 26.154 163.448C26.2994 164.55 26.5731 165.046 27.112 165.157C27.3258 165.157 27.8818 164.721 28.07 164.559L28.2753 164.388C29.0929 163.785 29.8115 163.059 30.4051 162.235C30.5798 162.009 30.7076 161.751 30.7811 161.475C30.8545 161.199 30.8721 160.912 30.8328 160.629C30.8328 160.543 30.7045 160.407 30.388 160.347C29.6727 160.214 28.9392 160.214 28.2239 160.347C27.993 160.347 27.7706 160.441 27.5396 160.492C27.1651 160.586 26.7852 160.658 26.402 160.706C26.0443 160.759 25.6794 160.742 25.3285 160.654C24.9776 160.566 24.6476 160.409 24.3577 160.193C24.1976 160.084 24.0865 159.916 24.0482 159.726C24.0098 159.537 24.0472 159.339 24.1524 159.176C24.2612 159.043 24.4119 158.95 24.5801 158.912L28.2581 157.852C29.129 157.558 30.035 157.38 30.9525 157.323C31.6426 157.334 32.3301 157.411 33.0054 157.553C33.4331 157.63 33.8608 157.698 34.2713 157.741C38.3001 158.109 40.3187 154.708 41.7814 151.333C45.5944 142.54 50.3953 134.208 56.0916 126.497L56.6134 125.797C58.2902 123.755 59.6723 121.489 60.7191 119.064C61.3946 117.017 61.8337 114.898 62.0278 112.751L66.0395 81.6009C66.3303 79.3113 66.6639 76.7055 67.9812 74.5439C70.4703 70.4259 75.0379 69.3665 79.443 68.3413C82.2229 67.692 85.097 67.0256 87.338 65.5903C88.5729 64.8529 89.6186 63.8377 90.3917 62.6257C91.7669 60.1539 92.2243 57.2765 91.6832 54.5008C91.6657 54.3888 91.6926 54.2745 91.758 54.182C91.8235 54.0895 91.9225 54.0261 92.0339 54.0052C92.146 53.9877 92.2605 54.0145 92.3531 54.0799C92.4457 54.1453 92.5092 54.2442 92.5301 54.3555C93.0851 57.3295 92.5797 60.4038 91.1016 63.0443C90.2577 64.3658 89.1188 65.4741 87.7742 66.2823C85.4049 67.7945 82.4624 68.478 79.6141 69.1444C75.1833 70.1782 70.992 71.1522 68.6826 74.954C67.4679 76.9703 67.1429 79.4736 66.8606 81.6864L62.849 112.836C62.652 115.048 62.1984 117.23 61.4975 119.338C60.4181 121.838 58.996 124.175 57.272 126.284L56.7588 126.976C51.0992 134.636 46.3298 142.913 42.5427 151.65C41.0544 155.067 38.762 158.988 34.1687 158.57C33.7154 158.527 33.2706 158.442 32.8343 158.365C32.2127 158.232 31.5796 158.161 30.944 158.151C30.1017 158.206 29.2704 158.373 28.472 158.647L25.0505 159.629C25.4267 159.815 25.8489 159.886 26.2652 159.834C26.6108 159.789 26.9535 159.723 27.2916 159.638C27.5396 159.578 27.7791 159.518 28.0272 159.475C28.844 159.322 29.6824 159.322 30.4992 159.475C30.7301 159.504 30.9498 159.591 31.1371 159.728C31.3244 159.866 31.4729 160.05 31.5684 160.261C31.6701 160.673 31.6791 161.101 31.5947 161.517C31.5104 161.932 31.3349 162.323 31.0808 162.662C30.4386 163.561 29.6594 164.354 28.7714 165.012L28.5661 165.183C28.1213 165.559 27.5054 166.037 26.9152 165.969C25.5381 165.721 25.3414 164.192 25.2473 163.542C25.2473 163.414 25.2473 163.26 25.2473 163.089C25.2473 162.637 25.1617 161.868 24.8795 161.714C24.8282 161.714 24.7768 161.782 24.7511 161.936C24.7255 162.09 24.6571 162.32 24.6058 162.508C24.5211 162.77 24.4638 163.039 24.4347 163.312C24.4225 164.089 24.5146 164.865 24.7084 165.618C24.7683 165.892 24.8281 166.174 24.8709 166.473C24.8899 166.699 24.9665 166.917 25.0933 167.105C25.3072 167.31 25.769 167.224 26.154 167.105L27.7963 166.712C27.853 166.698 27.9119 166.696 27.9694 166.707C28.0268 166.717 28.0815 166.739 28.1298 166.772C28.1791 166.803 28.2214 166.844 28.2538 166.893C28.2862 166.941 28.3081 166.996 28.318 167.054C28.3318 167.268 28.2911 167.482 28.1999 167.676C28.1087 167.87 27.9699 168.038 27.7963 168.164C26.3597 169.465 24.6914 170.485 22.8779 171.172C22.5143 171.268 22.1777 171.446 21.8942 171.693C22.7659 171.71 23.6339 171.577 24.4603 171.3C25.3017 171.043 26.1002 170.663 26.8297 170.172C27.112 169.984 27.4199 169.805 27.6851 169.634C28.1061 169.416 28.5069 169.162 28.8826 168.873L29.2333 168.566C29.6612 168.129 30.1813 167.793 30.7558 167.583C30.9069 167.541 31.0667 167.541 31.2177 167.583C31.3475 167.614 31.4634 167.687 31.5471 167.79C31.6308 167.894 31.6774 168.023 31.6796 168.156C31.6741 168.318 31.6103 168.472 31.5 168.591C31.0316 169.11 30.4863 169.554 29.8833 169.907C29.7037 170.027 29.5241 170.146 29.353 170.275L28.9766 170.548C28.1213 171.155 27.2659 171.778 26.3592 172.359C26.1599 172.467 25.9828 172.612 25.8375 172.786C25.8008 172.828 25.7759 172.878 25.7654 172.932C25.7548 172.986 25.7591 173.042 25.7776 173.094C25.8196 173.129 25.8692 173.155 25.9226 173.168C25.976 173.182 26.0317 173.182 26.0855 173.171C26.2856 173.113 26.4738 173.021 26.6415 172.897C26.9764 172.602 27.347 172.349 27.7449 172.146C27.9245 172.052 28.0871 171.949 28.241 171.855L29.9518 170.753C30.1314 170.633 30.3196 170.522 30.5163 170.411C30.8736 170.199 31.2191 169.968 31.5513 169.719C31.7567 169.553 31.9483 169.37 32.1244 169.172C32.3382 168.967 32.5521 168.745 32.7916 168.549C32.8733 168.476 32.9698 168.421 33.0746 168.388C33.1795 168.356 33.2901 168.347 33.3989 168.361C33.5632 168.396 33.7079 168.492 33.8033 168.631C33.8987 168.769 33.9376 168.938 33.9121 169.104C33.883 169.299 33.7966 169.48 33.664 169.625C33.0933 170.349 32.4451 171.008 31.7309 171.59C31.5085 171.77 31.269 171.932 31.0295 172.094C30.6332 172.314 30.2797 172.604 29.986 172.949C30.4698 172.748 30.929 172.493 31.3545 172.188L31.7309 171.941C32.4571 171.479 33.1463 170.962 33.7923 170.394C34.4167 169.839 35.0155 169.224 35.5972 168.626L35.888 168.318C36.2643 167.934 36.5894 167.524 36.9401 167.096C37.171 166.806 37.402 166.515 37.65 166.242C39.3551 164.223 40.9212 162.091 42.3374 159.86C45.3226 155.4 49.0691 151.607 52.7044 147.899C53.9874 146.6 55.3132 145.259 56.5963 143.909L58.307 142.141C62.1989 138.074 65.8684 134.238 68.1693 128.778C70.3591 123.584 71.2914 117.868 71.9928 112.922C72.5006 108.68 73.3589 104.488 74.5589 100.388C74.8583 99.4313 75.1662 98.4403 75.4143 97.4236C75.4656 96.6718 75.5426 95.937 75.6367 95.2279L75.7906 94.2283C76.0122 93.0745 76.1069 91.8998 76.0729 90.7254C76.0729 90.5546 76.0729 90.3837 76.0301 90.2043C75.8379 89.2583 75.9768 88.275 76.4236 87.4191C76.4704 87.3473 76.5382 87.2916 76.6177 87.2595C76.6973 87.2275 76.7848 87.2205 76.8684 87.2397C76.9541 87.2581 77.0321 87.3024 77.0917 87.3666C77.1514 87.4308 77.1899 87.5117 77.202 87.5985C77.5665 90.9513 77.2464 94.3431 76.2611 97.5688C75.8676 103.276 76.8342 109.991 80.8116 112.905H80.957C82.3777 113.154 83.7702 113.543 85.1141 114.066C85.7556 114.297 86.3971 114.519 87.0386 114.716C89.4937 114.928 91.9666 114.658 94.3178 113.921L94.677 113.639C94.9593 113.426 95.2415 113.204 95.5324 113.007C96.5302 112.319 97.6423 111.813 98.817 111.512L98.9282 111.426C98.8894 111.363 98.8655 111.292 98.8581 111.218C98.8507 111.144 98.86 111.069 98.8854 110.999C98.9321 110.884 99.0126 110.786 99.1165 110.717C99.2203 110.648 99.3425 110.613 99.467 110.615C99.6161 110.611 99.7606 110.666 99.8691 110.769C100.682 110.774 101.487 110.925 102.247 111.213C102.529 111.213 102.812 111.273 103.102 111.315C104.537 111.602 105.937 112.043 107.276 112.631C108.193 113.015 109.129 113.349 110.082 113.631C110.701 113.809 111.338 113.92 111.981 113.964C113.583 113.66 115.13 113.113 116.566 112.341C116.654 112.296 116.756 112.284 116.852 112.305C116.949 112.327 117.035 112.382 117.096 112.46C117.158 112.536 117.192 112.631 117.192 112.729C117.192 112.827 117.158 112.922 117.096 112.999C116.455 113.673 115.664 114.189 114.788 114.505C113.912 114.821 112.974 114.928 112.049 114.818C110.564 115.088 109.036 115.011 107.584 114.596C106.49 114.229 105.436 113.754 104.437 113.178C103.68 112.756 102.897 112.383 102.093 112.059C101.134 111.997 100.171 112.078 99.2361 112.298C97.8843 113.344 96.3624 114.151 94.7369 114.682C94.3644 114.97 93.9664 115.225 93.5479 115.442C91.8372 116.296 89.6133 116.365 86.9531 115.579H86.8932C86.1529 115.513 85.4163 115.411 84.6864 115.271C83.2047 115.058 81.7851 114.534 80.5208 113.733C80.3154 113.705 80.107 113.757 79.9391 113.878C79.7253 114.084 79.7595 114.519 80.0332 115.177C80.2128 115.63 80.4096 116.031 80.6063 116.518C81.4189 118.347 82.2572 120.235 82.0519 122.362C81.7159 125.327 81.0797 128.249 80.153 131.085C79.7256 132.35 79.1845 133.574 78.5363 134.742C77.6308 136.245 77.0103 137.901 76.7059 139.629C77.3277 139.892 77.8386 140.364 78.1514 140.962C80.2822 144.29 81.9376 147.899 83.0697 151.684C83.0873 151.742 83.0918 151.804 83.083 151.865C83.0741 151.925 83.0521 151.983 83.0184 152.034C82.9885 152.087 82.9466 152.132 82.8962 152.166C82.8457 152.201 82.788 152.223 82.7276 152.231C81.7439 152.384 81.0169 151.453 80.7261 151.06C78.7331 148.446 76.2525 145.191 75.8505 141.423C75.8168 141.125 75.7997 140.826 75.7992 140.526C75.6005 140.62 75.4089 140.729 75.2261 140.851C71.4368 143.311 67.2199 144.943 63.1484 146.523C61.489 147.173 59.7953 147.831 58.1188 148.548C59.8324 148.009 61.6099 147.699 63.405 147.626C67.1344 147.429 69.9485 147.873 72.2665 149.035C73.3183 149.594 74.3249 150.234 75.2774 150.949C77.1421 152.265 78.9041 153.512 81.0083 153.512C82.3756 153.441 83.7168 153.111 84.9601 152.538C86.534 151.949 88.1506 151.333 89.8699 151.581C91.5892 151.829 93.4111 153.068 95.0619 155.306C95.3955 155.75 95.712 156.161 96.0199 156.665C96.807 157.93 97.7655 159.08 98.8683 160.082C99.3439 160.47 99.8568 160.811 100.399 161.099L101.255 160.612C101.897 160.3 102.501 159.913 103.051 159.458C103.897 158.593 104.553 157.559 104.976 156.425C105.634 154.973 106.318 153.478 107.918 152.512C110.253 151.094 113.255 151.786 115.308 152.427L116.01 152.649C118.379 153.401 121.065 154.255 123.332 153.504C124.124 153.18 124.853 152.72 125.487 152.145C125.881 151.815 126.296 151.51 126.727 151.231C128.096 150.314 129.625 149.662 131.235 149.309C135.931 148.377 140.131 150.317 144.185 152.205L145.811 152.948C145.899 152.984 145.972 153.051 146.016 153.136C146.175 153.444 146.245 153.791 146.218 154.136C146.191 154.482 146.067 154.813 145.862 155.093C145.126 156.075 143.116 156.007 141.645 155.947C141.32 155.947 141.029 155.947 140.79 155.947C135.657 156.084 130.833 159.082 126.591 161.731L126.257 161.936C126.013 162.081 125.801 162.272 125.633 162.5C127.634 162.218 129.627 161.868 131.569 161.534C135.83 160.687 140.146 160.148 144.485 159.92C146.183 159.822 147.886 159.954 149.548 160.313C151.274 160.703 152.819 161.659 153.936 163.03C153.978 163.098 154 163.176 154 163.256C154 163.336 153.978 163.414 153.936 163.482C153.899 163.553 153.842 163.613 153.772 163.653C153.703 163.694 153.624 163.715 153.543 163.713C152.616 163.636 151.708 163.405 150.857 163.03C150.386 162.837 149.903 162.674 149.412 162.543C147.808 162.203 146.175 162.02 144.536 161.996H144.262C140.982 161.854 137.695 162.041 134.451 162.551C133.827 162.645 133.203 162.756 132.578 162.867C130.133 163.419 127.621 163.615 125.119 163.448C124.264 163.568 123.34 163.67 122.451 163.764C117.918 164.118 113.365 164.118 108.833 163.764C105.865 163.593 102.846 163.235 100.28 162.056C98.0555 163.3 95.722 164.338 93.3084 165.157L93.0176 165.251C92.4008 165.407 91.8081 165.645 91.2556 165.96C90.9798 166.117 90.7457 166.338 90.5731 166.604C90.4004 166.87 90.2942 167.174 90.2633 167.489C90.2633 168.139 90.7081 168.711 91.6063 169.198L92.1879 169.36C95.0321 170.146 97.9314 170.718 100.861 171.069H101.067C103.042 171.317 105.087 171.565 106.644 172.863C106.687 172.899 106.723 172.943 106.75 172.993C106.776 173.043 106.792 173.098 106.797 173.154C106.801 173.211 106.793 173.269 106.774 173.323C106.755 173.377 106.725 173.427 106.686 173.47C106.433 173.692 106.129 173.848 105.8 173.923C105.471 173.997 105.129 173.988 104.804 173.897C100.658 173.153 96.5873 172.038 92.6412 170.565C92.1803 170.407 91.7315 170.216 91.2983 169.993C88.4983 169.105 85.7535 168.052 83.0783 166.84C81.992 166.379 80.8971 165.909 79.7852 165.456C77.5304 164.435 75.4654 163.04 73.6779 161.329C72.6771 160.475 71.6421 159.578 70.4874 158.766C68.9011 157.725 67.1916 156.884 65.398 156.263C63.9469 155.765 62.4317 155.477 60.8988 155.409C60.1631 155.34 59.4019 155.272 58.5807 155.144C57.9876 155.095 57.4147 154.906 56.909 154.593C56.4034 154.279 55.9796 153.85 55.6725 153.341C55.5369 153.028 55.467 152.691 55.467 152.35C55.467 152.009 55.5369 151.672 55.6725 151.359C55.7977 151.043 55.987 150.756 56.2284 150.517C56.4698 150.277 56.7581 150.09 57.0753 149.966C57.1808 149.928 57.2975 149.932 57.3999 149.978C57.5024 150.025 57.5824 150.109 57.6227 150.214C57.6433 150.267 57.6533 150.323 57.6519 150.38C57.6506 150.436 57.638 150.492 57.6149 150.544C57.5919 150.595 57.5587 150.642 57.5175 150.681C57.4762 150.72 57.4277 150.75 57.3747 150.77C57.1681 150.85 56.9807 150.973 56.8246 151.131C56.6684 151.288 56.5469 151.477 56.468 151.684C56.3792 151.887 56.3334 152.107 56.3334 152.329C56.3334 152.551 56.3792 152.77 56.468 152.974C56.7333 153.37 57.0902 153.696 57.5086 153.925C57.927 154.154 58.3945 154.279 58.8716 154.29C59.667 154.409 60.4112 154.477 61.1383 154.546C62.7479 154.622 64.3381 154.93 65.8599 155.46C67.7181 156.094 69.4908 156.955 71.1374 158.023C72.2691 158.837 73.3569 159.709 74.3964 160.637C76.1173 162.285 78.1039 163.631 80.2727 164.619C81.3847 165.072 82.4795 165.541 83.583 166.011C85.6187 166.866 87.7058 167.78 89.8528 168.532C89.6589 168.2 89.5612 167.822 89.5705 167.438C89.5952 166.978 89.7349 166.531 89.977 166.138C90.2191 165.746 90.5557 165.42 90.9562 165.191C91.5749 164.832 92.2397 164.559 92.9321 164.379L93.2143 164.294C95.4004 163.56 97.516 162.63 99.5355 161.517C99.1241 161.258 98.7298 160.973 98.3551 160.663C97.1926 159.609 96.1822 158.398 95.3527 157.066C95.0448 156.622 94.7369 156.169 94.4119 155.733C92.8979 153.691 91.3839 152.589 89.7758 152.316C88.1677 152.043 86.8333 152.649 85.3022 153.23C83.9547 153.84 82.5032 154.188 81.0254 154.255C78.6561 154.255 76.6973 152.846 74.807 151.513C73.8884 150.828 72.919 150.214 71.9073 149.676C69.7347 148.582 67.0574 148.155 63.4734 148.343C57.4859 148.659 53.2091 151.368 48.6414 155.332C48.5659 155.391 48.4725 155.424 48.3763 155.424C48.28 155.424 48.1866 155.391 48.1111 155.332C48.0342 155.276 47.9781 155.196 47.9518 155.105C47.9255 155.013 47.9304 154.916 47.9657 154.828C48.9408 152.401 51.2503 150.906 53.1492 149.873C56.2719 148.259 59.4947 146.847 62.7977 145.643C66.8264 144.08 71.0006 142.465 74.7214 140.047C75.0508 139.811 75.4181 139.631 75.8077 139.518C76.1119 137.661 76.7649 135.878 77.7323 134.263C78.3591 133.14 78.883 131.961 79.2976 130.743C80.2015 127.965 80.8234 125.103 81.1537 122.2C81.3419 120.303 80.5892 118.595 79.7852 116.792C79.5884 116.339 79.3831 115.886 79.195 115.425C79.0068 114.964 78.5705 113.896 79.3062 113.186C79.3974 113.1 79.5012 113.028 79.6141 112.973C76.5947 110.247 75.4314 105.352 75.3373 100.593C74.167 104.642 73.3289 108.78 72.8311 112.964C72.1211 117.962 71.1802 123.738 68.9477 129.026C66.5955 134.631 62.8661 138.527 58.9143 142.696C58.3669 143.277 57.8024 143.858 57.2036 144.456C55.912 145.823 54.5862 147.164 53.2946 148.471C49.6935 152.111 45.9727 155.87 43.0302 160.261C41.5869 162.523 39.9953 164.686 38.2659 166.738C38.0349 167.011 37.804 167.284 37.5816 167.592C37.2398 168.041 36.8713 168.469 36.4782 168.873L36.1788 169.181C35.5886 169.796 34.9813 170.42 34.3312 171.001C33.6531 171.597 32.9295 172.14 32.1671 172.624L31.7993 172.863C31.2538 173.272 30.6438 173.586 29.9945 173.794C29.8795 173.834 29.7574 173.848 29.6365 173.836C29.5155 173.824 29.3985 173.787 29.2931 173.726C29.1823 173.651 29.0947 173.546 29.0403 173.424C28.9859 173.302 28.9668 173.167 28.9852 173.034C29.0063 172.859 29.071 172.691 29.1734 172.547C29.4948 172.09 29.9086 171.706 30.388 171.419L28.6773 172.513C28.5062 172.615 28.3266 172.727 28.1298 172.829C27.7882 173.007 27.467 173.222 27.1718 173.47C27.1532 173.494 27.1299 173.514 27.1034 173.53C26.8341 173.726 26.529 173.868 26.2053 173.948C26.1358 173.972 26.0642 173.989 25.9914 174ZM98.6972 171.582C100.78 172.213 102.903 172.701 105.053 173.043C105.239 173.074 105.428 173.088 105.617 173.085C104.199 172.391 102.653 171.992 101.075 171.915H100.87C100.143 171.795 99.4157 171.693 98.7058 171.548L98.6972 171.582ZM101.349 161.526C103.795 162.407 106.37 162.88 108.97 162.927C113.457 163.281 117.964 163.281 122.451 162.927C123.212 162.85 123.982 162.765 124.743 162.662C124.807 162.357 124.94 162.072 125.133 161.827C125.326 161.582 125.573 161.386 125.855 161.253L126.189 161.039C130.525 158.339 135.444 155.264 140.824 155.127C141.055 155.127 141.363 155.127 141.679 155.127C142.74 155.127 144.716 155.229 145.186 154.606C145.281 154.474 145.343 154.321 145.367 154.161C145.391 154 145.376 153.836 145.323 153.683L143.835 152.999C139.9 151.18 135.828 149.292 131.415 150.172C129.906 150.505 128.473 151.116 127.189 151.974C126.786 152.233 126.4 152.519 126.035 152.829C125.319 153.474 124.493 153.986 123.597 154.341C121.031 155.144 118.122 154.204 115.753 153.486L115.06 153.264C113.17 152.675 110.407 152.034 108.371 153.264C106.994 154.119 106.395 155.417 105.805 156.801C105.334 158.042 104.609 159.172 103.675 160.116C103.074 160.62 102.414 161.047 101.708 161.389L101.349 161.526ZM142.227 161.065C142.954 161.065 143.681 161.065 144.391 161.124H144.664C146.358 161.155 148.045 161.347 149.702 161.697C150.228 161.838 150.745 162.009 151.251 162.209C151.653 162.372 152.055 162.517 152.448 162.637C151.553 161.911 150.507 161.394 149.386 161.124C147.802 160.786 146.179 160.662 144.562 160.757C142.954 160.808 141.337 160.936 139.737 161.124C140.584 161.09 141.414 161.065 142.235 161.065H142.227ZM52.6702 151.222C51.9905 151.619 51.3466 152.073 50.7456 152.581C51.3957 152.097 52.0401 151.644 52.6787 151.222H52.6702ZM76.6203 140.569C76.6203 140.825 76.6203 141.09 76.6716 141.355C77.048 144.892 79.443 148.036 81.3761 150.565C81.5496 150.811 81.7569 151.033 81.992 151.222C80.8917 147.779 79.3476 144.494 77.3987 141.449C77.1942 141.1 76.9171 140.8 76.5861 140.569H76.6203ZM106.139 113.152C106.673 113.42 107.228 113.643 107.798 113.819H107.935L106.934 113.426L106.139 113.152Z" fill="#99B2B0" stroke="#99B2B0" stroke-width="1.12" stroke-miterlimit="10"/>
<path d="M99.3679 58.9998C98.3511 58.9726 97.3454 58.7859 96.3896 58.4468C95.1794 58.0407 94.0352 57.4678 92.992 56.7455C92.0324 56.0379 91.2051 55.1746 90.5464 54.1935C89.0925 52.1851 87.8903 50.0147 86.9653 47.7283L86.6771 47.0053L86.616 46.8521C86.5033 46.9402 86.3722 47.0033 86.232 47.0371C86.0917 47.0709 85.9455 47.0745 85.8037 47.0478C85.3835 46.9683 85.0128 46.7297 84.773 46.3843C84.275 45.5857 83.8846 44.7279 83.6114 43.8322C83.5477 43.6558 83.4748 43.4826 83.393 43.3133C83.1627 42.8683 83.029 42.3818 83 41.8842C83 41.2122 83.4804 39.9957 84.511 39.9617C84.5662 39.9574 84.6217 39.9574 84.677 39.9617C84.5046 39.0695 84.481 38.156 84.6071 37.2565C84.6071 36.8907 84.6682 36.5505 84.677 36.2527C84.7381 32.0674 85.0176 28.0267 87.6291 24.5729C89.2125 22.4976 91.3477 20.8828 93.8042 19.9027L93.647 19.6816C92.7736 18.4906 91.8303 17.1295 92.0137 15.6664C92.2757 13.4461 93.516 12.1871 95.6122 12.0085C96.7497 11.9642 97.8872 12.0934 98.9836 12.3913L102.049 13.0718C103.438 13.3781 105.08 13.9225 105.499 15.2666C105.647 16.0016 105.604 16.761 105.374 17.4756C105.143 18.1903 104.733 18.8375 104.181 19.3583C106.105 20.2858 107.768 21.655 109.028 23.348C110.539 25.2195 112.146 27.4312 112.592 29.5919C113.076 31.6864 113.368 33.8186 113.465 35.9635C113.529 36.9616 113.384 37.9619 113.039 38.9037C112.693 39.8455 112.155 40.709 111.456 41.4418C111.411 41.492 111.354 41.5306 111.29 41.5543C111.226 41.578 111.157 41.5861 111.089 41.5779C111.021 41.5736 110.955 41.5527 110.897 41.517C110.839 41.4814 110.791 41.4321 110.757 41.3738C110.291 40.711 109.992 39.9503 109.884 39.1535C109.884 38.9579 109.884 38.7537 109.884 38.5495C109.908 38.0719 109.821 37.5951 109.631 37.1544C109.486 36.9225 109.313 36.7083 109.115 36.5164C108.949 36.3478 108.795 36.1688 108.652 35.9805C108.288 35.4206 108.03 34.8009 107.893 34.1516L107.831 33.9389C107.552 32.605 106.937 31.3597 106.041 30.315C105.054 29.2176 103.491 28.7413 102.11 28.3159C100.826 27.9169 99.4712 27.7737 98.1282 27.895C96.7853 28.0163 95.4811 28.3996 94.2934 29.022C91.5163 30.4081 89.3883 32.7758 88.3453 35.6402C88.0746 36.559 87.8388 37.4947 87.6466 38.4305V38.6006C87.5331 39.1535 87.4195 39.6724 87.3584 40.2084V40.3955C87.347 40.7181 87.2729 41.0356 87.14 41.3313L87.2536 41.4248C87.9569 42.2055 88.5075 43.1051 88.8781 44.0789C88.9829 44.2916 89.079 44.5043 89.1664 44.6914C90.6965 47.6952 91.7732 50.8984 92.3631 54.202C92.3786 54.2961 92.3611 54.3925 92.3136 54.4758C92.2661 54.5591 92.1913 54.6244 92.1011 54.6613C92.534 55.1747 93.0297 55.6346 93.5772 56.0309C94.5481 56.7142 95.6162 57.2558 96.7477 57.6387C97.84 58.0596 99.0213 58.2144 100.189 58.0896C101.275 57.8069 102.307 57.356 103.246 56.754C104.716 55.9363 105.997 54.8331 107.01 53.5129C107.01 53.4279 107.054 53.3343 107.08 53.2407C107.401 52.1304 107.852 51.0599 108.425 50.0507C108.626 49.6594 108.836 49.2596 109.028 48.8512C109.11 48.6811 109.197 48.5024 109.29 48.3153C109.473 47.6943 109.648 47.0648 109.805 46.4353C109.829 46.3012 109.884 46.1741 109.966 46.0636C110.048 45.9531 110.154 45.8621 110.277 45.7973C110.489 45.7253 110.72 45.7253 110.932 45.7973C111.077 45.8401 111.232 45.8401 111.378 45.7973C111.689 45.075 111.809 44.2882 111.727 43.509C111.631 42.5294 111.815 41.5429 112.26 40.6592C112.36 40.4986 112.496 40.3619 112.658 40.2589C112.82 40.1559 113.003 40.0892 113.194 40.0637C113.314 40.054 113.435 40.0739 113.544 40.1215C113.654 40.169 113.75 40.2428 113.823 40.336C113.909 40.4589 113.966 40.5993 113.989 40.7467C114.011 40.894 114 41.0444 113.954 41.1866L113.666 42.5392C113.544 43.1347 113.421 43.7302 113.282 44.3256C113.187 44.8819 112.973 45.4124 112.653 45.8824C112.456 46.1184 112.208 46.31 111.928 46.4438C111.699 46.724 111.445 46.9832 111.168 47.2179C111.002 47.3595 110.845 47.51 110.696 47.6688C110.444 47.9594 110.23 48.2795 110.059 48.6215C109.928 49.0554 109.788 49.4722 109.648 49.9146C109.351 50.8782 108.968 51.8146 108.504 52.7133C108.282 53.1124 108.038 53.4987 107.77 53.8702C107.368 55.3505 107.22 56.8855 107.334 58.4128C107.346 58.5244 107.312 58.6362 107.24 58.7238C107.168 58.8115 107.064 58.8679 106.949 58.8807C106.835 58.8927 106.72 58.86 106.63 58.7899C106.54 58.7198 106.482 58.6179 106.469 58.5064C106.367 57.4166 106.411 56.3185 106.6 55.2398C105.717 56.1219 104.715 56.8831 103.622 57.5026C102.597 58.153 101.47 58.6357 100.285 58.9317C99.9819 58.9797 99.6751 59.0025 99.3679 58.9998ZM86.6771 45.8483C86.8693 45.8483 87.2012 45.9249 87.402 46.4353L87.4981 46.665C87.5855 46.9032 87.6815 47.1499 87.7776 47.3881C88.684 49.6102 89.8566 51.7204 91.2713 53.6746L91.3412 53.7596C90.7425 50.7452 89.7351 47.8216 88.3453 45.0657L88.0484 44.4277C87.7141 43.5599 87.2296 42.7543 86.616 42.0458C86.532 41.9651 86.4414 41.8912 86.3452 41.8246H86.2404C86.0094 41.8085 85.7851 41.742 85.584 41.6301C85.383 41.5182 85.2103 41.3638 85.0787 41.1781C84.8516 40.9144 84.7206 40.8208 84.5634 40.8208C84.2141 40.8208 83.8909 41.4929 83.8996 41.8842C83.9319 42.2672 84.0417 42.6402 84.2228 42.9816C84.3101 43.1772 84.3975 43.3729 84.4586 43.56C84.7164 44.3746 85.0772 45.1547 85.5329 45.8824C85.6344 46.032 85.7905 46.1385 85.9696 46.1801C85.9888 46.1886 86.0097 46.1929 86.0308 46.1929C86.0519 46.1929 86.0727 46.1886 86.0919 46.1801C86.1645 46.0918 86.2544 46.0185 86.3563 45.9645C86.4583 45.9104 86.5703 45.8767 86.6858 45.8654L86.6771 45.8483ZM113.037 40.957C113 40.9898 112.968 41.027 112.941 41.0675C112.592 41.7855 112.45 42.5824 112.53 43.3729C112.609 43.0326 112.67 42.7008 112.74 42.3606C112.81 42.0203 112.932 41.4503 113.037 40.9995V40.957ZM94.3196 20.6343C91.9398 21.5476 89.8703 23.0918 88.3453 25.0919C85.891 28.3414 85.629 32.2375 85.5679 36.2782C85.5679 36.6015 85.5679 36.9588 85.498 37.3416C85.3121 38.2993 85.3874 39.2878 85.7163 40.2084C85.8797 40.4641 86.1045 40.6772 86.3714 40.8294C86.409 40.6671 86.4324 40.5021 86.4413 40.336C86.4364 40.2623 86.4364 40.1884 86.4413 40.1148C86.5024 39.5448 86.6247 38.9749 86.7383 38.4134V38.2433C86.9304 37.2905 87.175 36.3293 87.4545 35.385C88.5739 32.3089 90.8536 29.7632 93.8304 28.2649C95.121 27.5905 96.5378 27.176 97.9963 27.0459C99.4548 26.9158 100.925 27.0729 102.32 27.5078C103.965 27.8472 105.479 28.6314 106.687 29.7706C107.667 30.9123 108.345 32.2705 108.661 33.7262L108.722 33.9474C108.841 34.497 109.053 35.0233 109.351 35.5041C109.476 35.6621 109.61 35.8127 109.753 35.955C110.003 36.2103 110.217 36.4963 110.391 36.8057C110.648 37.3608 110.77 37.9663 110.749 38.5751C110.749 38.7622 110.749 38.9494 110.749 39.128C110.797 39.593 110.94 40.044 111.168 40.4551C112.166 39.193 112.659 37.6212 112.557 36.0315C112.454 33.9377 112.162 31.8568 111.683 29.8131C111.273 27.8225 109.735 25.7214 108.286 23.9264C106.539 21.8082 104.932 20.5237 103.132 19.9368C102.432 20.1333 101.699 20.194 100.975 20.1154H100.87C100.634 20.243 100.399 20.3961 100.145 20.5578C99.6917 20.8823 99.2094 21.167 98.7041 21.4084C97.782 21.8011 96.75 21.8761 95.7782 21.6211C95.3462 21.4786 94.9544 21.2397 94.634 20.9235C94.5216 20.8353 94.4164 20.7386 94.3196 20.6343ZM95.193 20.3196C95.4385 20.5049 95.7212 20.6382 96.0227 20.7109C96.804 20.9126 97.6325 20.8496 98.3722 20.5322C98.7764 20.3556 99.1625 20.142 99.5252 19.8942C99.2067 19.849 98.886 19.8206 98.5644 19.8092C97.8153 19.789 97.0667 19.8633 96.3372 20.0303C95.9791 20.0729 95.5948 20.209 95.2192 20.3196H95.193ZM96.1188 12.8506H95.6472C93.9789 12.9953 93.0269 13.948 92.8435 15.7599C92.7037 16.9254 93.5684 18.1333 94.3283 19.1626L94.6165 19.571C95.1383 19.4222 95.6693 19.3057 96.2062 19.2222C97.0082 19.0451 97.8296 18.9651 98.6517 18.984C99.1434 19.0089 99.6332 19.06 100.119 19.1371L100.774 19.2222C101.519 18.8569 102.38 18.7867 103.176 19.0265L103.307 18.967C103.833 18.5763 104.24 18.0525 104.481 17.4525C104.723 16.8525 104.791 16.1994 104.678 15.5643C104.39 14.62 103.028 14.2032 101.875 13.948L98.8002 13.2675C97.9336 13.0339 97.0431 12.8941 96.145 12.8506H96.1188Z" fill="#99B2B0" stroke="#99B2B0" stroke-width="1.12" stroke-miterlimit="10"/>
<path d="M38.736 186C34.9964 185.912 31.2747 185.45 27.6256 184.619C25.2497 184.144 22.8568 183.626 20.5065 183.083C16.6948 182.22 12.678 181.149 9.19959 179.035C7.14846 177.783 6.07162 176.359 6.00325 174.797C5.92633 172.993 7.21684 171.344 9.72094 169.929C13.6505 167.773 17.9696 166.437 22.4209 166.002C22.5339 165.992 22.6461 166.027 22.7339 166.099C22.8217 166.172 22.878 166.276 22.8909 166.39C22.8968 166.447 22.8916 166.504 22.8754 166.559C22.8592 166.613 22.8325 166.664 22.7967 166.708C22.7609 166.753 22.7168 166.789 22.667 166.816C22.6172 166.843 22.5626 166.859 22.5063 166.865C18.1629 167.284 13.9479 168.584 10.1141 170.688C8.58426 171.551 6.77242 172.924 6.84933 174.762C6.90061 176.014 7.84072 177.205 9.63547 178.292C13.0028 180.347 16.9426 181.374 20.6945 182.245C23.0277 182.789 25.4121 183.298 27.7795 183.773C31.4059 184.581 35.1005 185.038 38.8129 185.137C35.8016 184.12 32.9299 182.722 30.2665 180.977C29.4518 180.497 28.7306 179.871 28.1384 179.13C27.8177 178.722 27.599 178.243 27.5008 177.732C27.4026 177.221 27.4279 176.694 27.5744 176.195C27.6045 176.104 27.6636 176.026 27.7426 175.973C27.8215 175.92 27.9156 175.895 28.0102 175.902C28.4392 175.996 28.8449 176.178 29.2032 176.434C29.5615 176.691 29.8649 177.017 30.0956 177.395C31.9444 179.653 34.208 181.528 36.7617 182.919C38.9667 184.144 42.1374 183.903 44.9406 183.687L46.5046 183.583C58.3841 182.936 70.0927 179.751 81.4252 176.678L84.2199 175.919L86.0916 175.384C87.8116 174.855 89.5609 174.428 91.3305 174.106C92.6413 173.833 93.9073 173.374 95.0909 172.743C95.9727 172.3 96.8837 171.919 97.8172 171.603C99.8746 171.007 102.044 170.921 104.142 171.353C105.582 171.68 106.986 172.157 108.329 172.777C109.184 173.122 109.927 173.442 110.688 173.701C113.175 174.564 115.722 175.349 118.243 176.135C127.956 179.142 137.862 181.475 147.891 183.117C151.163 183.757 154.502 183.983 157.83 183.79C161.126 183.601 164.295 182.436 166.941 180.442C168.227 179.447 169.274 178.17 170.002 176.708C170.731 175.246 171.121 173.637 171.145 172C171.143 171.943 171.152 171.886 171.172 171.833C171.192 171.78 171.223 171.731 171.262 171.69C171.301 171.649 171.348 171.616 171.4 171.594C171.452 171.571 171.508 171.56 171.564 171.56C171.674 171.564 171.779 171.608 171.859 171.684C171.94 171.76 171.99 171.864 172 171.974C171.99 173.747 171.576 175.493 170.791 177.078C170.006 178.663 168.869 180.044 167.47 181.115C164.692 183.216 161.364 184.447 157.898 184.654C154.502 184.853 151.094 184.624 147.754 183.972C137.684 182.322 127.739 179.978 117.987 176.955C115.423 176.169 112.919 175.349 110.423 174.521C109.628 174.253 108.799 173.908 108.005 173.571C106.716 172.978 105.37 172.521 103.988 172.207C102.028 171.795 99.9986 171.869 98.0736 172.423C97.175 172.73 96.2984 173.099 95.4499 173.528C94.1928 174.193 92.8492 174.675 91.4587 174.961C89.7256 175.275 88.0131 175.696 86.3309 176.221L84.4421 176.747L81.6474 177.507C70.2807 180.606 58.5209 183.799 46.5559 184.455L45.009 184.559C43.4217 184.717 41.8253 184.763 40.2316 184.697C40.6503 184.818 41.0862 184.938 41.4794 185.042C41.5763 185.07 41.6607 185.13 41.7184 185.214C41.776 185.297 41.8033 185.398 41.7956 185.499C41.7864 185.6 41.7431 185.695 41.6731 185.767C41.6031 185.839 41.5105 185.885 41.411 185.896C40.5307 185.965 39.6248 186 38.736 186ZM28.3179 176.86C28.2835 177.481 28.4716 178.093 28.8478 178.586C29.38 179.238 30.0223 179.791 30.7451 180.217C31.745 180.873 32.7706 181.469 33.8132 182.021C32.1834 180.85 30.7148 179.466 29.446 177.904C29.1445 177.482 28.7605 177.126 28.3179 176.86V176.86Z" fill="#99B2B0" stroke="#99B2B0" stroke-width="1.12" stroke-miterlimit="10"/>
<path d="M173.802 172.97H173.563C173.237 172.898 172.931 172.755 172.666 172.552C172.64 172.54 172.617 172.522 172.598 172.5C172.305 172.25 171.984 172.035 171.641 171.86C171.445 171.749 171.265 171.646 171.094 171.535L169.386 170.442C169.865 170.732 170.278 171.119 170.599 171.578C170.701 171.722 170.766 171.889 170.787 172.065C170.803 172.197 170.783 172.331 170.729 172.453C170.675 172.575 170.589 172.68 170.479 172.757C170.373 172.816 170.256 172.852 170.135 172.862C170.015 172.872 169.893 172.857 169.779 172.816C169.131 172.612 168.522 172.3 167.976 171.894L167.609 171.655C166.847 171.168 166.125 170.622 165.448 170.023C164.799 169.451 164.183 168.819 163.594 168.204L163.304 167.905C162.902 167.495 162.552 167.05 162.202 166.623C161.979 166.341 161.757 166.06 161.518 165.769C159.793 163.717 158.204 161.554 156.76 159.294C156.06 158.235 155.299 157.201 154.513 156.21L152.959 154.852C150.892 152.895 148.627 151.157 146.202 149.667C143.283 148.135 140.264 146.805 137.164 145.686L135.455 145.02C131.702 143.665 128.096 141.933 124.692 139.852C124.507 139.731 124.316 139.619 124.119 139.519C124.117 139.804 124.1 140.089 124.068 140.373C123.666 144.149 121.189 147.395 119.199 150.009C118.891 150.41 118.182 151.333 117.2 151.187C117.14 151.177 117.084 151.154 117.034 151.12C116.984 151.086 116.942 151.042 116.909 150.991C116.876 150.94 116.854 150.882 116.845 150.822C116.836 150.761 116.841 150.699 116.858 150.641C117.987 146.856 119.64 143.247 121.77 139.92C122.08 139.32 122.591 138.849 123.214 138.588C122.911 136.86 122.291 135.203 121.386 133.701C120.738 132.531 120.198 131.305 119.771 130.037C118.4 125.344 118.131 120.397 118.985 115.583C119.117 114.416 119.39 113.269 119.797 112.166C120.047 111.613 120.332 111.077 120.651 110.561L120.916 110.091C122.445 107.54 123.596 104.78 124.333 101.899C124.52 100.994 124.615 100.072 124.615 99.1481C123.321 95.2017 121.792 91.3364 120.036 87.5733C119.83 87.1883 119.714 86.7621 119.694 86.3261C119.681 86.0493 119.757 85.7757 119.911 85.5451C120.065 85.3146 120.288 85.1393 120.548 85.0448C121.24 84.8398 121.898 85.2925 122.377 86.2834C123.45 88.4082 124.237 90.666 124.717 92.9976C125.13 94.9665 125.376 96.9668 125.452 98.9772C125.52 99.1993 125.589 99.4214 125.648 99.635C126.662 103.273 127.382 106.987 127.801 110.74L127.963 111.867C128.664 116.805 129.595 122.52 131.782 127.713C134.08 133.172 137.762 137.016 141.631 141.082L143.34 142.842C144.621 144.2 145.903 145.541 147.227 146.839C150.051 149.596 152.724 152.505 155.231 155.553C155.607 155.877 155.974 156.185 156.35 156.492C156.394 156.527 156.43 156.57 156.457 156.62C156.484 156.669 156.501 156.723 156.506 156.779C156.512 156.834 156.506 156.891 156.49 156.944C156.473 156.998 156.446 157.047 156.41 157.09V157.09C156.811 157.637 157.196 158.192 157.58 158.799C158.994 161.032 160.558 163.167 162.261 165.188C162.509 165.47 162.74 165.761 162.97 166.042C163.298 166.468 163.649 166.876 164.021 167.264L164.312 167.572C164.892 168.169 165.49 168.793 166.114 169.348C166.759 169.916 167.448 170.433 168.173 170.894L168.549 171.142C168.973 171.447 169.431 171.699 169.915 171.894C169.62 171.551 169.267 171.262 168.873 171.04C168.631 170.884 168.397 170.716 168.173 170.536C167.458 169.958 166.81 169.302 166.242 168.58C166.11 168.434 166.024 168.253 165.994 168.058C165.967 167.891 166.004 167.72 166.1 167.58C166.195 167.44 166.341 167.342 166.507 167.307C166.616 167.296 166.726 167.308 166.831 167.341C166.935 167.375 167.031 167.43 167.114 167.503C167.35 167.696 167.572 167.904 167.78 168.127C167.958 168.322 168.149 168.505 168.352 168.673C168.681 168.925 169.026 169.153 169.386 169.357L169.95 169.707L171.658 170.809L172.154 171.099C172.551 171.3 172.921 171.55 173.256 171.843C173.423 171.966 173.611 172.058 173.811 172.116C173.864 172.131 173.92 172.132 173.973 172.12C174.027 172.109 174.077 172.084 174.118 172.048C174.136 171.994 174.14 171.937 174.129 171.882C174.119 171.827 174.094 171.775 174.059 171.732C173.914 171.562 173.741 171.421 173.546 171.313C172.692 170.732 171.769 170.1 170.923 169.494L170.548 169.22L170.009 168.861C169.41 168.5 168.866 168.054 168.395 167.537C168.291 167.419 168.231 167.268 168.224 167.11C168.226 166.977 168.273 166.848 168.356 166.745C168.44 166.641 168.556 166.568 168.685 166.538C168.836 166.496 168.996 166.496 169.147 166.538C169.719 166.755 170.237 167.093 170.667 167.529L171.017 167.836C171.395 168.122 171.795 168.376 172.213 168.597C172.512 168.767 172.82 168.938 173.068 169.135C173.798 169.622 174.595 170.002 175.434 170.262C176.26 170.535 177.127 170.665 177.997 170.647C177.749 170.428 177.458 170.265 177.142 170.168H177.066C175.25 169.485 173.581 168.465 172.145 167.161C171.973 167.034 171.835 166.866 171.744 166.672C171.653 166.478 171.612 166.265 171.624 166.051C171.632 165.993 171.653 165.937 171.685 165.888C171.718 165.839 171.761 165.799 171.812 165.769C171.86 165.736 171.915 165.714 171.972 165.703C172.029 165.693 172.088 165.695 172.145 165.709L173.785 166.094C174.17 166.188 174.639 166.265 174.844 166.094C174.973 165.909 175.05 165.694 175.067 165.47C175.067 165.188 175.169 164.915 175.229 164.616C175.423 163.863 175.515 163.087 175.502 162.31C175.473 162.039 175.416 161.773 175.331 161.515C175.28 161.327 175.229 161.131 175.186 160.943C175.174 160.847 175.139 160.756 175.084 160.678C174.776 160.866 174.725 161.635 174.691 162.096C174.691 162.267 174.691 162.421 174.691 162.549C174.597 163.198 174.4 164.718 173.025 164.966C172.435 165.077 171.82 164.556 171.376 164.18L171.171 164.018C170.284 163.36 169.506 162.568 168.865 161.669C168.611 161.33 168.436 160.938 168.351 160.523C168.267 160.108 168.276 159.68 168.378 159.268C168.472 159.055 168.62 158.87 168.807 158.73C168.994 158.591 169.214 158.503 169.446 158.474C170.262 158.324 171.098 158.324 171.914 158.474C172.162 158.474 172.401 158.577 172.649 158.628C172.986 158.717 173.328 158.783 173.674 158.824C174.095 158.885 174.524 158.817 174.904 158.628L171.487 157.637C170.688 157.37 169.859 157.206 169.018 157.15C168.384 157.156 167.751 157.227 167.131 157.364C166.695 157.44 166.276 157.517 165.798 157.56C161.211 157.979 158.964 154.083 157.435 150.641C153.656 141.909 148.896 133.635 143.246 125.979L142.725 125.287C141.003 123.179 139.583 120.842 138.505 118.343C137.805 116.232 137.352 114.048 137.155 111.833L134.857 93.9629C134.533 91.46 134.071 88.9144 133.627 86.4628C133.439 85.4121 133.243 84.3614 133.063 83.3192C132.969 82.7469 132.875 82.1746 132.79 81.6108C132.346 78.7577 131.936 76.0669 130.441 73.6494C129.629 72.3719 128.557 71.2805 127.294 70.4472C126.03 69.6139 124.605 69.0574 123.111 68.8145L120.847 68.4045C117.627 67.8578 113.971 67.2256 111.451 65.6197C110.101 64.7655 108.341 63.3902 107.632 61.6475C107.222 60.623 107.008 59.5307 107 58.4271C106.999 58.3714 107.009 58.3161 107.029 58.2643C107.05 58.2125 107.081 58.1654 107.12 58.1256C107.159 58.0858 107.205 58.0542 107.256 58.0327C107.308 58.0111 107.363 58 107.419 58C107.53 58.0021 107.636 58.0466 107.715 58.1244C107.795 58.2022 107.841 58.3075 107.846 58.4186C107.856 59.4165 108.05 60.404 108.418 61.3315C109.067 62.9374 110.878 64.2615 111.903 64.9021C114.304 66.4141 117.883 67.0292 121.018 67.5673C121.813 67.704 122.582 67.8321 123.299 67.9774C124.911 68.24 126.449 68.8418 127.811 69.743C129.173 70.6442 130.329 71.8243 131.201 73.2052C132.764 75.7679 133.217 78.6723 133.661 81.4741C133.747 82.0464 133.832 82.6188 133.935 83.1826C134.114 84.2247 134.302 85.2669 134.49 86.3176C134.943 88.7863 135.404 91.3404 135.728 93.8689L138.026 111.731C138.221 113.881 138.66 116.001 139.333 118.052C140.381 120.475 141.761 122.741 143.434 124.783L143.955 125.484C149.644 133.193 154.438 141.524 158.246 150.316C159.707 153.69 161.732 157.082 165.747 156.723C166.165 156.68 166.601 156.603 167.011 156.526C167.686 156.386 168.372 156.312 169.061 156.304C169.977 156.359 170.882 156.534 171.752 156.825L175.425 157.893C175.594 157.93 175.745 158.023 175.852 158.158C175.905 158.238 175.942 158.327 175.96 158.421C175.979 158.514 175.978 158.611 175.959 158.705C175.94 158.798 175.903 158.887 175.849 158.966C175.796 159.045 175.727 159.113 175.647 159.166C175.358 159.383 175.029 159.541 174.679 159.63C174.328 159.72 173.964 159.739 173.606 159.687C173.223 159.64 172.844 159.568 172.47 159.473L171.786 159.32C171.072 159.187 170.339 159.187 169.625 159.32C169.309 159.38 169.215 159.508 169.181 159.602C169.142 159.884 169.159 160.172 169.232 160.448C169.306 160.723 169.433 160.982 169.608 161.208C170.199 162.031 170.917 162.754 171.735 163.352L171.94 163.531C172.128 163.685 172.692 164.163 172.897 164.129C173.435 164.026 173.708 163.54 173.854 162.421C173.854 162.31 173.854 162.173 173.854 162.019C173.905 161.302 173.973 160.311 174.708 159.943C174.826 159.874 174.959 159.833 175.096 159.826C175.232 159.819 175.369 159.844 175.494 159.901C175.649 159.989 175.783 160.112 175.883 160.26C175.984 160.408 176.05 160.577 176.075 160.755C176.107 160.925 176.15 161.094 176.203 161.259C176.302 161.579 176.368 161.908 176.399 162.241C176.418 163.105 176.32 163.966 176.109 164.804C176.049 165.069 175.998 165.342 175.946 165.607C175.91 166.01 175.749 166.393 175.485 166.7C175.221 166.892 174.914 167.016 174.59 167.061C174.267 167.106 173.938 167.07 173.631 166.956L173.059 166.82C174.35 167.918 175.821 168.785 177.407 169.382C177.911 169.528 178.372 169.795 178.748 170.16C178.873 170.29 178.956 170.453 178.988 170.63C179.011 170.755 179.001 170.883 178.959 171.003C178.917 171.123 178.845 171.23 178.748 171.313C178.039 171.928 175.75 171.313 175.331 171.125C174.985 171.02 174.646 170.895 174.315 170.749C174.535 170.889 174.726 171.068 174.879 171.279C175.014 171.459 175.094 171.674 175.108 171.899C175.122 172.124 175.069 172.348 174.956 172.543C174.827 172.72 174.649 172.855 174.443 172.931C174.238 173.007 174.015 173.021 173.802 172.97V172.97ZM124.077 138.605C124.466 138.718 124.832 138.898 125.161 139.134C128.518 141.193 132.072 142.91 135.771 144.26L137.48 144.926C140.619 146.056 143.676 147.403 146.629 148.958C148.031 149.766 149.36 150.695 150.601 151.734C149.26 150.299 147.884 148.907 146.526 147.531C145.168 146.156 143.912 144.883 142.622 143.525C142.067 142.927 141.503 142.346 140.956 141.765C137.01 137.639 133.268 133.744 130.936 128.098C128.707 122.81 127.767 117.036 127.058 112.038L126.896 110.902C126.514 107.739 125.944 104.601 125.187 101.506C125.187 101.719 125.119 101.924 125.067 102.129C124.345 105.088 123.194 107.926 121.65 110.552L121.377 111.03C121.087 111.516 120.83 112.022 120.608 112.542C120.227 113.579 119.969 114.657 119.839 115.754C119.016 120.44 119.276 125.253 120.6 129.823C121.014 131.041 121.537 132.219 122.163 133.343C123.13 134.959 123.779 136.745 124.077 138.605V138.605ZM123.274 139.544C122.956 139.77 122.691 140.061 122.496 140.399C120.55 143.44 119.008 146.723 117.909 150.162C118.143 149.976 118.351 149.758 118.524 149.513C120.454 146.951 122.846 143.833 123.222 140.305C123.274 140.057 123.274 139.801 123.274 139.544ZM120.813 85.9076H120.711C120.626 85.9537 120.557 86.0236 120.511 86.1085C120.466 86.1935 120.446 86.2899 120.454 86.3859C120.489 86.6845 120.579 86.9741 120.719 87.2401C121.907 89.8712 123.128 92.6645 124.222 95.6628C124.102 94.8086 123.948 93.9544 123.795 93.1685C123.335 90.9098 122.574 88.7232 121.531 86.6678C121.36 86.3005 121.061 85.9076 120.813 85.9076V85.9076Z" fill="#99B2B0" stroke="#99B2B0" stroke-width="1.12" stroke-miterlimit="10"/>
<path d="M102.474 189C89.8693 189 78.6307 188.597 67.375 187.747C64.591 187.532 61.4654 187.395 58.1605 187.249C52.3191 186.991 46.2899 186.725 41.3624 186.021C41.2519 186.004 41.1524 185.944 41.0854 185.854C41.0183 185.765 40.989 185.652 41.0037 185.54C41.0206 185.427 41.0811 185.325 41.1721 185.256C41.2631 185.187 41.3774 185.157 41.4905 185.171C46.3668 185.875 52.3789 186.141 58.2032 186.399C61.5081 186.545 64.6423 186.682 67.4434 186.888C79.775 187.824 92.0897 188.219 106.198 188.133C123.354 188.03 143.603 187.523 163.663 184.545C172.1 183.291 181.05 181.574 189.377 177.583C190.717 176.939 192.203 176.141 192.904 174.801C193.081 174.492 193.165 174.137 193.143 173.78C193.057 173.162 192.443 172.672 191.922 172.321C187.857 169.582 182.733 168.664 178.206 167.848C178.151 167.839 178.098 167.818 178.051 167.788C178.003 167.758 177.962 167.718 177.931 167.672C177.899 167.625 177.876 167.573 177.865 167.518C177.854 167.462 177.854 167.405 177.865 167.35C177.886 167.239 177.949 167.14 178.042 167.076C178.135 167.012 178.249 166.987 178.36 167.007C182.963 167.865 188.181 168.767 192.391 171.608C192.786 171.818 193.132 172.109 193.407 172.463C193.683 172.816 193.88 173.224 193.988 173.66C194.039 174.194 193.923 174.732 193.655 175.196C192.844 176.776 191.213 177.651 189.744 178.355C181.315 182.399 172.288 184.124 163.791 185.395C143.671 188.382 123.397 188.888 106.206 188.991L102.474 189Z" fill="#99B2B0" stroke="#99B2B0" stroke-width="1.12" stroke-miterlimit="10"/>
<path d="M99.0567 54.9792C98.4424 55.0106 97.8286 54.9058 97.255 54.6716C97.0789 54.6108 96.9254 54.4932 96.8162 54.3355C96.7069 54.1777 96.6474 53.9878 96.6461 53.7925C96.647 53.7266 96.6617 53.6617 96.6891 53.6025C96.7165 53.5432 96.7559 53.4911 96.8046 53.4497C96.6428 53.4511 96.484 53.4027 96.3477 53.3107C96.2115 53.2186 96.1036 53.0867 96.0372 52.9311C96.0127 52.8714 96 52.8071 96 52.7421C96 52.6771 96.0127 52.6128 96.0372 52.5531C96.0686 52.497 96.1108 52.4485 96.1611 52.4106C96.2114 52.3728 96.2686 52.3464 96.3292 52.3334C96.8878 52.1879 97.4127 51.9248 97.8723 51.5598C98.0328 51.4383 98.21 51.3435 98.3978 51.2785C98.5253 51.241 98.6574 51.2233 98.7898 51.2258H99.0901C99.0901 50.9884 99.0901 50.7511 99.0234 50.505C98.9566 50.2588 98.9733 50.0743 98.9566 49.8545C98.5717 49.8793 98.1852 49.8557 97.8056 49.7842C97.6471 49.7769 97.4946 49.7181 97.3691 49.6158C97.2436 49.5135 97.1513 49.3727 97.1049 49.2128C97.0798 49.1222 97.0842 49.0253 97.1174 48.9377C97.1507 48.85 97.2109 48.7767 97.2884 48.7293C97.625 48.4917 98.0179 48.3577 98.4228 48.3426C98.635 48.3377 98.8454 48.3844 99.0377 48.4789C99.2301 48.5734 99.3993 48.7132 99.5322 48.8876C99.8498 48.816 100.158 48.7038 100.45 48.5535C100.549 48.515 100.638 48.4517 100.708 48.3689C100.736 48.1806 100.709 47.9879 100.633 47.8152C99.9166 45.7752 99.5851 43.6073 99.6573 41.4334C99.672 40.8322 99.8329 40.2451 100.124 39.7281C100.433 39.2136 100.832 38.766 101.3 38.4096C101.575 38.2394 101.878 38.126 102.193 38.0755C103.42 37.9208 104.664 38.0042 105.863 38.3217L107.356 38.6293C107.496 38.6402 107.63 38.6931 107.743 38.7819C107.855 38.8708 107.941 38.9917 107.99 39.1304C108.003 39.2148 108.003 39.3009 107.99 39.3853V41.6795C108.009 41.9974 107.96 42.3156 107.848 42.6113V42.6904C107.873 42.7239 107.89 42.763 107.898 42.8047C107.915 42.8601 107.921 42.9184 107.915 42.9762C107.91 43.034 107.893 43.09 107.867 43.1409C107.84 43.1918 107.804 43.2365 107.761 43.2724C107.718 43.3083 107.668 43.3346 107.615 43.3497C106.891 43.6011 106.133 43.7287 105.371 43.7277H105.263C104.28 43.7275 103.309 43.5119 102.41 43.0948C102.332 43.0604 102.266 43.0013 102.221 42.9257C102.176 42.8502 102.155 42.7618 102.16 42.6728C102.164 42.5845 102.193 42.4995 102.243 42.4289C102.294 42.3583 102.364 42.3055 102.443 42.2773C102.854 42.1469 103.295 42.1655 103.694 42.33L104.178 42.5322C104.328 42.5937 104.47 42.6641 104.629 42.7168C104.864 42.792 105.108 42.8362 105.354 42.8486C106.122 42.8486 106.889 42.7783 107.123 42.2421C107.181 42.0613 107.203 41.8699 107.189 41.6795V39.4908L105.705 39.1919C104.616 38.8965 103.485 38.8131 102.368 38.9458C102.16 38.9761 101.959 39.0477 101.776 39.1567C101.415 39.4409 101.107 39.7925 100.867 40.194C100.65 40.5873 100.529 41.0314 100.516 41.4862C100.456 43.5474 100.776 45.6014 101.459 47.5339C101.542 47.7317 101.586 47.9458 101.586 48.1624C101.586 48.3789 101.542 48.593 101.459 48.7909C101.314 49.0392 101.098 49.233 100.842 49.3447C100.511 49.5125 100.164 49.6422 99.8074 49.7314V49.793C99.8074 50.0039 99.8491 50.2061 99.8658 50.4171C99.8825 50.628 99.9325 50.9797 99.9492 51.2961C100.284 51.3526 100.6 51.4978 100.867 51.718L101.175 51.9817C101.49 52.2711 101.825 52.5355 102.176 52.7729C102.267 52.8314 102.332 52.9239 102.36 53.0316C102.388 53.1394 102.376 53.2543 102.326 53.353C101.994 54.0345 101.427 54.5564 100.742 54.8122C100.278 54.953 99.797 55.0154 99.3153 54.9968L99.0567 54.9792ZM97.4886 53.8629H97.5887C98.1423 54.0678 98.7304 54.1487 99.3153 54.1002C99.7085 54.1153 100.102 54.0709 100.483 53.9683C100.847 53.8319 101.163 53.5839 101.392 53.2563C101.134 53.0629 100.892 52.852 100.65 52.641L100.358 52.3861C100.234 52.2863 100.092 52.2145 99.9409 52.1751C99.9349 52.4283 99.8499 52.6724 99.699 52.8696C99.3823 53.1496 98.9861 53.3104 98.5729 53.3267H98.4061C98.0452 53.3971 97.6801 53.4411 97.3134 53.4585C97.3632 53.4994 97.404 53.5513 97.4328 53.6105C97.4616 53.6697 97.4778 53.7348 97.4803 53.8013L97.4886 53.8629ZM99.1068 52.1663H98.8982H98.6647C98.5583 52.2064 98.4595 52.2659 98.3727 52.3421L98.0808 52.5355H98.2727H98.4645C98.6812 52.5161 98.893 52.4566 99.0901 52.3597C99.1154 52.2775 99.1211 52.1899 99.1068 52.1048V52.1663Z" fill="#99B2B0" stroke="#99B2B0" stroke-width="1.12" stroke-miterlimit="10"/>
</g>
<defs>
<clipPath id="clip0_395_2929">
<rect width="200" height="200" fill="white"/>
</clipPath>
</defs>
</svg>
