<svg width="48" height="48" viewBox="0 0 48 48" fill="none" xmlns="http://www.w3.org/2000/svg">
<path d="M32.6439 41C32.6439 38.589 32.6439 33.0438 32.6439 30.1507C40.1251 26.0822 38.3648 8 24.2826 8C15.9212 8 11.0805 14.3288 12.4007 21.1096C11.0805 22.4658 8 26.9863 8 27.8904C8 28.7945 9.32021 28.7945 9.76028 28.7945C10.1123 28.7945 11.2272 28.7945 11.5206 28.7945C11.5206 29.8493 11.5206 32.6706 11.5206 34.1172C11.5206 35.9254 12.4007 36.9315 14.601 36.9315C15.9212 36.9315 16.7254 36.2817 17.6815 36.0274C19.0762 35.6564 19.8819 36.5815 19.8819 37.4856L19.4418 40.65" stroke="#547572" stroke-width="2" stroke-linecap="round"/>
</svg>
