<svg width="200" height="200" viewBox="0 0 200 200" fill="none" xmlns="http://www.w3.org/2000/svg">
<path d="M75.2093 173.102L74.6893 172.242C77.9243 170.431 80.3485 167.456 81.4693 163.922C81.9848 162.19 82.0081 160.348 81.5365 158.603C81.065 156.858 80.1172 155.279 78.7993 154.042C77.4757 153.023 76.0057 152.211 74.4393 151.632C72.9784 151.068 71.5862 150.34 70.2893 149.462C68.7738 148.304 67.5369 146.821 66.6693 145.122C64.5993 145.122 62.6693 144.952 61.1093 144.812C58.1127 144.689 55.1943 143.819 52.6193 142.282C48.1493 139.282 46.4693 133.652 45.1393 128.142C42.5793 117.572 41.0393 104.772 51.8393 99.642C54.3793 98.442 54.0493 96.372 52.8393 93.392V93.652C53.1103 95.016 53.0137 96.4276 52.5593 97.742C52.2904 98.4012 51.8916 98.9995 51.3864 99.5012C50.8813 100.003 50.2803 100.398 49.6193 100.662C49.1515 100.851 48.6493 100.941 48.1448 100.926C47.6403 100.91 47.1445 100.79 46.6893 100.572C45.5552 99.7804 44.7121 98.6387 44.2893 97.322C41.9693 92.322 43.5293 85.552 44.7893 80.112C44.9793 79.262 45.1693 78.442 45.3393 77.662C45.5134 76.3699 46.0161 75.1442 46.7993 74.102C47.2608 73.568 47.8695 73.1819 48.5493 72.992C48.9393 61.312 52.0793 51.992 58.1293 44.302C65.2699 35.2529 75.528 29.1914 86.8993 27.302C90.1226 26.8963 93.377 26.7958 96.6193 27.002C98.5093 27.062 100.469 27.132 102.339 27.062C109.37 26.801 116.403 27.5111 123.239 29.172C131.109 31.102 137.239 38.102 141.239 43.172C147.991 51.9797 151.926 62.6207 152.529 73.702C152.809 73.9268 153.07 74.1743 153.309 74.442C155.229 76.612 155.589 79.622 155.769 82.272C156.058 86.4162 156.081 90.5747 155.839 94.722C155.867 96.135 155.481 97.5253 154.729 98.722C153.816 99.7453 152.635 100.493 151.319 100.882L151.129 100.952C153.472 104.033 155.158 107.561 156.083 111.319C157.009 115.078 157.154 118.986 156.509 122.802C155.449 127.898 153.293 132.703 150.189 136.882C146.999 141.362 143.709 144.152 140.119 145.402C139.311 145.742 138.417 145.826 137.559 145.642C137.02 145.467 136.54 145.147 136.171 144.716C135.802 144.286 135.559 143.762 135.469 143.202C134.578 144.72 133.151 145.851 131.469 146.372C129.586 146.729 127.643 146.591 125.829 145.972C122.579 145.142 117.979 143.682 115.529 140.442C112.529 136.442 114.159 131.132 115.529 126.852L115.699 126.312C118.879 116.072 122.579 105.882 126.699 96.012C127.559 94.012 128.629 92.012 130.619 91.422C131.879 91.1755 133.182 91.2899 134.379 91.752L134.959 91.922C138.859 93.082 143.499 94.452 147.039 96.922C141.899 80.702 129.289 61.582 111.289 59.132C103.029 58.012 89.8293 58.052 79.8093 61.852C70.8093 65.262 63.7493 71.362 59.9193 79.022C59.2726 80.4105 58.7278 81.8443 58.2893 83.312C57.1993 86.612 56.0793 90.012 53.4493 91.942C54.0922 93.3004 54.5464 94.7404 54.7993 96.222C55.7735 95.0962 56.9421 94.1545 58.2493 93.442C61.6614 91.4538 65.4739 90.2514 69.4093 89.922C70.2683 89.7791 71.1505 89.9122 71.9293 90.302C72.6752 90.8413 73.2289 91.6052 73.5093 92.482C80.7693 109.352 84.5093 123.862 85.3693 138.142C85.4554 138.764 85.3937 139.398 85.1893 139.992C84.8759 140.654 84.3797 141.213 83.7593 141.602C79.9093 144.402 73.5093 145.132 67.9193 145.132C68.6673 146.499 69.6885 147.697 70.9193 148.652C72.1424 149.487 73.4577 150.178 74.8393 150.712C76.4955 151.334 78.0493 152.2 79.4493 153.282C80.9161 154.64 81.9741 156.382 82.5042 158.309C83.0343 160.237 83.0152 162.275 82.4493 164.192C81.2545 167.973 78.6661 171.159 75.2093 173.102V173.102ZM131.769 92.312C131.469 92.3072 131.169 92.3442 130.879 92.422C129.289 92.882 128.359 94.622 127.599 96.422C123.479 106.262 119.779 116.422 116.599 126.622L116.429 127.172C115.099 131.442 113.589 136.272 116.309 139.862C118.569 142.862 122.949 144.232 126.049 145.022C127.697 145.591 129.462 145.732 131.179 145.432C132.097 145.104 132.936 144.586 133.641 143.913C134.346 143.239 134.9 142.424 135.269 141.522C135.275 140.922 135.332 140.323 135.439 139.732C136.698 132.33 138.544 125.041 140.959 117.932C141.249 117.052 141.579 115.932 141.959 114.742C143.259 110.252 144.959 104.242 148.019 101.592L148.199 101.012C147.999 100.192 147.769 99.362 147.529 98.512C144.039 95.672 138.919 94.152 134.669 92.902L134.099 92.732C133.347 92.4817 132.562 92.3403 131.769 92.312V92.312ZM136.289 141.802C136.289 143.022 136.619 144.432 137.829 144.802C138.487 144.921 139.165 144.845 139.779 144.582C143.169 143.402 146.299 140.732 149.359 136.422C152.38 132.364 154.479 127.695 155.509 122.742C156.135 119.022 155.984 115.213 155.067 111.555C154.15 107.896 152.486 104.467 150.179 101.482C149.905 101.608 149.638 101.748 149.379 101.902C149.689 103.252 149.939 104.572 150.129 105.832L149.129 105.982C148.989 105.032 148.809 104.052 148.599 103.052L137.729 138.052C137.344 139.336 136.863 140.59 136.289 141.802V141.802ZM67.2893 144.182C72.8293 144.182 79.2893 143.592 83.0893 140.842C83.5558 140.558 83.9334 140.149 84.1793 139.662C84.3216 139.203 84.3625 138.718 84.2993 138.242C83.4693 124.082 79.7193 109.682 72.5193 92.922C72.3058 92.2468 71.8948 91.6511 71.3393 91.212C70.7355 90.9371 70.0631 90.85 69.4093 90.962C65.6225 91.2833 61.9543 92.4412 58.6693 94.352C56.9858 95.1711 55.5909 96.4823 54.6693 98.112C53.4593 100.622 54.2193 103.562 55.1693 106.622L65.0593 138.352C65.6549 140.332 66.4004 142.265 67.2893 144.132V144.182ZM53.1893 100.042C52.9095 100.234 52.6153 100.405 52.3093 100.552C42.2193 105.332 43.5293 117.062 46.1493 127.912C47.4893 133.452 49.0393 138.652 53.2093 141.452C55.6651 142.895 58.4424 143.703 61.2893 143.802C62.7093 143.932 64.4193 144.052 66.2893 144.102C65.5059 142.31 64.8379 140.469 64.2893 138.592L54.2893 106.862C53.4777 104.683 53.1039 102.366 53.1893 100.042V100.042ZM147.289 103.962C145.289 106.832 143.959 111.442 142.919 115.042C142.579 116.242 142.249 117.372 141.919 118.272C139.812 124.481 138.141 130.83 136.919 137.272L147.289 103.962ZM149.779 99.302L149.979 99.522L150.519 100.182L150.969 100.002C152.118 99.6785 153.156 99.0454 153.969 98.172C154.611 97.1169 154.928 95.896 154.879 94.662C155.121 90.5581 155.098 86.4428 154.809 82.342C154.639 79.872 154.319 77.082 152.629 75.152C152.829 81.0257 152.038 86.8911 150.289 92.502L149.429 92.232C149.951 93.3295 150.249 94.5199 150.306 95.7338C150.362 96.9476 150.176 98.1606 149.759 99.302H149.779ZM48.4793 74.052C48.0977 74.2074 47.7559 74.4467 47.4793 74.752C46.8367 75.6807 46.4284 76.7512 46.2893 77.872C46.1193 78.662 45.9293 79.482 45.7293 80.332C44.5093 85.632 42.9893 92.212 45.1693 96.902C45.5422 98.0355 46.2808 99.0133 47.2693 99.682C47.603 99.8303 47.9641 99.9069 48.3293 99.9069C48.6944 99.9069 49.0556 99.8303 49.3893 99.682C49.921 99.468 50.4046 99.1498 50.8116 98.7463C51.2186 98.3427 51.5408 97.8618 51.7593 97.332C52.1462 96.1716 52.2187 94.9294 51.9693 93.732C51.854 92.9341 51.8105 92.1276 51.8393 91.322C51.8393 91.142 51.8393 90.972 51.8893 90.792C51.9393 90.612 51.7193 90.332 51.6493 90.102C51.4193 89.822 51.1493 89.552 50.8693 89.272C49.9392 88.5192 49.3167 87.4521 49.1193 86.272C48.6354 82.2173 48.4216 78.135 48.4793 74.052V74.052ZM148.379 97.952L148.949 98.462C149.949 94.462 148.579 92.462 146.749 89.822C146.119 88.902 145.479 87.952 144.839 86.822C143.839 85.042 142.949 83.192 142.079 81.412C140.751 78.5014 139.213 75.6908 137.479 73.002C132.969 66.352 125.129 57.802 113.379 54.802C109.056 53.8013 104.625 53.3444 100.189 53.442C95.8226 53.3536 91.4604 53.7697 87.1893 54.682C72.2493 58.132 58.7793 70.682 54.4393 85.222C54.2993 85.682 54.1393 86.162 53.9793 86.652C53.5593 87.867 53.2252 89.1101 52.9793 90.372C53.0562 90.5309 53.123 90.6946 53.1793 90.862C55.2893 89.072 56.2893 85.992 57.2893 83.002C57.7408 81.4864 58.3023 80.0058 58.9693 78.572C62.9693 70.682 70.1793 64.412 79.4093 60.912C89.5993 57.052 102.999 57.002 111.409 58.142C130.339 60.712 143.429 81.182 148.379 97.952ZM100.519 52.442C104.929 52.3488 109.333 52.8056 113.629 53.802C123.169 56.262 131.699 62.702 138.309 72.422C140.07 75.1524 141.63 78.0065 142.979 80.962C143.839 82.732 144.729 84.572 145.719 86.332C146.329 87.422 146.959 88.332 147.579 89.262C148.222 90.162 148.803 91.1041 149.319 92.082C149.195 91.0267 148.936 89.9916 148.549 89.002C148.281 88.2695 148.07 87.5172 147.919 86.752C147.722 84.5638 147.765 82.3606 148.049 80.182V80.062C148.289 77.362 148.819 73.762 150.579 73.192C150.872 73.1017 151.186 73.1017 151.479 73.192C150.756 62.5417 146.897 52.3436 140.389 43.882C136.529 38.882 130.509 32.082 122.949 30.222C116.193 28.568 109.24 27.858 102.289 28.112C100.389 28.182 98.4193 28.112 96.5093 28.052C93.3306 27.8468 90.1396 27.9439 86.9793 28.342C75.8784 30.1866 65.8615 36.0969 58.8793 44.922C52.9893 52.422 49.8793 61.492 49.5093 72.922C49.9184 72.9504 50.3138 73.081 50.6593 73.302C51.7493 74.002 52.0293 75.302 52.1693 76.632C52.3194 78.5991 52.3194 80.5748 52.1693 82.542C51.992 84.6031 52.0221 86.6768 52.2593 88.732V88.802C52.4793 87.992 52.7393 87.182 52.9893 86.392C53.1493 85.912 53.2993 85.442 53.4393 84.982C57.9193 70.072 71.6893 57.232 86.9593 53.702C91.3067 52.7783 95.7456 52.3555 100.189 52.442H100.519ZM151.079 74.112C151.02 74.1024 150.959 74.1024 150.899 74.112C150.399 74.272 149.499 75.262 149.059 80.112V80.282C148.796 82.3918 148.753 84.5232 148.929 86.642C149.079 87.3412 149.276 88.0294 149.519 88.702C149.679 89.192 149.829 89.642 149.949 90.042C151.299 84.8968 151.849 79.5744 151.579 74.262C151.429 74.1686 151.256 74.1168 151.079 74.112V74.112ZM49.4793 73.882C49.4147 77.9878 49.6218 82.0934 50.0993 86.172C50.2149 86.981 50.6156 87.7222 51.2293 88.262C51.074 86.3317 51.074 84.3922 51.2293 82.462C51.3744 80.5447 51.3744 78.6192 51.2293 76.702C51.2447 76.2185 51.1583 75.7372 50.9757 75.2892C50.7931 74.8413 50.5183 74.4368 50.1693 74.102C49.961 73.9726 49.7239 73.897 49.4793 73.882V73.882Z" fill="#99B2B0" stroke="#99B2B0" stroke-miterlimit="10"/>
</svg>
