<svg width="800" height="147" viewBox="0 0 800 147" fill="none" xmlns="http://www.w3.org/2000/svg">
<g clip-path="url(#clip0_65_10)">
<path d="M559.051 74.6028C559.585 74.6028 560.119 74.4134 560.653 74.3188C571.422 72.7995 581.444 67.9203 589.303 60.3702C603.785 45.8536 601.869 24.6783 585.22 13.2859C576.16 7.29335 565.593 4.01006 554.748 3.81853C537.658 3.21893 520.537 3.40828 503.448 3.25049C503.083 3.29285 502.725 3.37756 502.38 3.50293V146.744H520.631V75.4548C526.223 75.4548 531.469 75.4548 536.716 75.4548C537.42 75.3729 538.133 75.5107 538.756 75.8494C539.38 76.1881 539.885 76.7114 540.203 77.3483C544.318 84.5435 548.559 91.7071 552.768 98.8392C561.816 114.239 570.884 129.629 579.973 145.008C580.234 145.486 580.593 145.902 581.026 146.228C581.46 146.555 581.958 146.784 582.487 146.902C588.487 147.091 594.487 146.902 601.021 146.902L558.329 75.1393C558.769 74.7921 558.894 74.6343 559.051 74.6028ZM551.543 70.879C541.428 71.5101 531.25 70.879 520.914 70.879V7.63703C532.475 8.04728 543.941 7.63703 555.125 9.12025C571.334 11.3293 579.659 21.3647 580.256 37.0174C580.831 44.0437 579.287 51.0812 575.827 57.2144C573.247 61.3573 569.67 64.7808 565.426 67.169C561.182 69.5571 556.408 70.833 551.543 70.879Z" fill="black"/>
<path d="M343.8 9.49893C345.308 12.3391 346.941 15.1793 348.292 18.1458C348.815 19.2977 348.883 20.6065 348.48 21.8065C339.789 43.6866 331.066 65.5351 322.312 87.3521L308.741 81.0406L306.605 85.6796L320.396 91.9911C315.747 103.625 311.076 115.281 306.385 126.957C303.746 133.521 301.045 140.085 298.312 146.776H305.128C305.128 146.334 314.993 121.687 325.768 94.4842L391.518 125.064L399.372 144.851C399.717 145.64 400.691 146.807 401.382 146.807C407.351 146.965 413.32 146.807 419.697 146.807C399.759 97.5769 379.926 48.5781 360.198 -0.189331L343.8 9.49893ZM327.621 89.8137C337.894 63.8416 348.606 36.7018 352.47 26.698L388.785 118.216L327.621 89.8137Z" fill="black"/>
<path d="M740.532 0L724.134 9.46735C725.642 12.3076 727.276 15.1478 728.626 18.1142C729.124 19.2613 729.191 20.5505 728.815 21.7434C720.123 43.6445 711.38 65.5351 702.584 87.4153L688.761 81.1037L686.625 85.7427L700.699 92.2752L686.72 126.989C684.081 133.553 681.379 140.117 678.646 146.807H685.463C685.463 146.365 695.296 121.782 706.039 94.6104L772.01 125.253L779.8 144.882C780.146 145.671 781.088 146.839 781.811 146.839C787.78 146.996 793.748 146.839 800.126 146.839C780.104 97.7136 760.24 48.7674 740.532 0ZM707.924 89.9399C718.197 63.9046 728.909 36.7018 732.773 26.8242C738.71 41.751 757.056 87.9833 769.182 118.563L707.924 89.9399Z" fill="black"/>
<path d="M0 146.996H18.5974V3.56604H0V146.996Z" fill="black"/>
<path d="M210.037 141.316C209.157 139.833 208.56 138.886 207.995 137.908C183.178 95.4625 158.234 53.0487 133.668 10.4457C132.967 8.87158 131.962 7.45297 130.711 6.27205C129.46 5.09112 127.988 4.17136 126.38 3.56604H106.401V146.776H112.244V10.3194C113.092 11.708 113.626 12.5285 114.097 13.4752C128.003 37.3119 141.909 61.1381 155.816 84.9537C167.481 104.94 179.146 124.927 190.811 144.914C191.345 145.797 192.319 147.06 193.136 147.091C200.581 147.249 208.058 147.091 215.566 147.091V3.56604H209.943L210.037 141.316Z" fill="black"/>
</g>
<defs>
<clipPath id="clip0_65_10">
<rect width="800" height="146.996" fill="white"/>
</clipPath>
</defs>
</svg>
