<svg width="48" height="48" viewBox="0 0 48 48" fill="none" xmlns="http://www.w3.org/2000/svg">
<path d="M24.5 4V40" stroke="#547572" stroke-width="2" stroke-linecap="round"/>
<path d="M25.2557 24.1695L39.6681 12.8644M43.031 20.7288L32.9423 26.6271M32.9423 26.6271L24.7753 31.0508L7 20.7288M32.9423 26.6271L43.031 25.1525M43.9918 28.5932C44.3761 28.5932 31.1808 32.3616 24.7753 34L7 27.1186M15.6474 7.94915L21.2866 22.2034M22.2588 24.661L24.7753 28.1017C24.7753 27.986 29.5313 25.3187 33.7104 22.6949M22.2588 24.661L7.96083 18.2712M22.2588 24.661L21.2866 22.2034M16.6083 22.1358L8.92165 14.8305M14.6866 25.1924L7 24.661M21.2866 22.2034C21.3872 21.4169 15.3272 14.339 12.2845 10.8983M16.1278 15.3429L10.3629 13.3559M19.0103 5.49153L24.7753 14.8305L30.5402 6.47458M21.8928 5L24.7753 9.42373L27.6577 5M24.7753 20.2373C24.7753 20.1377 27.1773 17.7797 30.7349 14.339M35.3444 7.94915C34.1026 9.66426 32.3795 12.0504 30.7349 14.339M30.7349 14.339L32.9423 6.47458M41.5897 17.7797C39.4719 19.0929 36.5053 20.9401 33.7104 22.6949M33.7104 22.6949L39.6681 15.5909" stroke="#547572" stroke-width="2" stroke-linecap="round"/>
</svg>
